<svg xmlns="http://www.w3.org/2000/svg" viewBox="0 0 600 600" width="600" height="600">
	<style>
		tspan { white-space:pre }
		.shp0 { fill: #222222 } 
		.shp1 { fill: none;stroke: #222222;stroke-width: 2 } 
		.shp2 { fill: none;stroke: #000000;stroke-width: 2 } 
	</style>
	<g id="Layer_2">
		<g id="Layer">
			<g id="Layer">
				<g id="Layer">
					<path id="Layer" class="shp0" d="M314.94 10.54L314.94 10.54C314.94 10.94 314.94 11.24 314.94 11.54C315.14 11.54 315.34 11.54 315.44 11.54L315.44 10.54C315.34 10.54 315.14 10.54 314.94 10.54ZM287.44 10.49C287.34 10.49 287.24 10.49 287.24 10.49C286.64 10.49 286.04 10.59 285.44 10.58L285.44 11.08L285.44 11.58C285.64 11.59 285.84 11.59 286.04 11.59C286.44 11.59 286.84 11.59 287.24 11.49C287.34 11.49 287.44 11.49 287.44 11.49L287.44 10.49ZM317.44 10.65L317.44 11.15L317.44 11.65C317.64 11.65 317.94 11.65 318.14 11.65C318.54 11.65 319.04 11.66 319.43 11.76L319.54 10.76C318.84 10.76 318.14 10.75 317.44 10.65ZM283.44 10.67C282.74 10.67 282.14 10.77 281.44 10.76L281.44 11.26L281.43 11.76C281.63 11.76 281.83 11.77 282.03 11.77C282.53 11.77 282.93 11.67 283.43 11.67L283.44 10.67ZM321.44 10.97L321.44 11.47L321.43 11.97C321.63 11.97 321.93 11.97 322.13 12.07C322.53 12.07 323.03 12.18 323.43 12.18L323.54 11.18C322.84 11.08 322.14 10.97 321.44 10.97ZM279.44 10.95C278.74 10.95 278.14 11.05 277.44 11.14L277.43 11.64L277.43 12.14C277.63 12.14 277.83 12.15 278.03 12.15C278.53 12.15 279.03 12.05 279.43 12.05L279.44 10.95ZM325.44 11.29L325.43 11.79L325.43 12.29C325.63 12.29 325.93 12.29 326.13 12.39C326.53 12.39 327.03 12.5 327.43 12.5L327.54 11.5C326.84 11.4 326.14 11.29 325.44 11.29ZM275.44 11.23C274.74 11.33 274.14 11.33 273.44 11.42L273.53 11.92L273.53 12.42C273.73 12.42 273.93 12.43 274.03 12.33C274.53 12.33 275.03 12.23 275.43 12.23L275.44 11.23ZM329.44 11.61L329.43 12.11L329.43 12.61C329.63 12.61 329.93 12.61 330.13 12.71C330.53 12.72 331.03 12.82 331.43 12.82L331.53 11.82C330.74 11.72 330.14 11.71 329.44 11.61ZM271.43 11.61C270.73 11.71 270.13 11.71 269.43 11.8L269.53 12.3L269.53 12.8C269.73 12.8 269.93 12.8 270.03 12.71C270.53 12.61 271.03 12.61 271.43 12.51L271.43 11.61ZM333.43 12.03L333.43 12.53L333.33 13.03C333.53 13.03 333.83 13.03 334.03 13.13C334.43 13.13 334.93 13.24 335.33 13.24L335.43 12.24C334.73 12.24 334.13 12.13 333.43 12.03ZM267.53 12.09C266.83 12.19 266.23 12.29 265.53 12.28L265.63 12.88L265.63 13.28C265.83 13.28 265.93 13.28 266.13 13.19C266.63 13.09 267.13 13.09 267.63 12.99L267.53 12.09ZM337.43 12.55L337.33 13.05L337.23 13.55C337.43 13.55 337.73 13.65 337.93 13.65C338.32 13.75 338.72 13.76 339.22 13.86L339.33 12.86C338.73 12.66 338.03 12.55 337.43 12.55ZM263.53 12.57C262.83 12.67 262.23 12.77 261.53 12.86L261.63 13.36L261.72 13.76C261.92 13.76 262.12 13.76 262.22 13.66C262.72 13.57 263.22 13.57 263.73 13.47L263.53 12.57ZM341.43 13.07L341.33 13.57L341.22 14.07C341.42 14.07 341.72 14.17 341.92 14.17C342.32 14.28 342.72 14.28 343.12 14.38L343.33 13.38C342.73 13.28 342.03 13.17 341.43 13.07ZM259.53 13.05C258.83 13.15 258.23 13.24 257.53 13.34L257.62 13.84L257.72 14.24C257.92 14.24 258.02 14.24 258.22 14.14C258.72 14.05 259.22 13.95 259.72 13.95L259.53 13.05ZM345.33 13.59L345.22 13.99L345.12 14.49C345.32 14.49 345.62 14.59 345.82 14.59C346.22 14.69 346.62 14.7 347.02 14.8L347.22 13.8C346.62 13.9 346.02 13.79 345.33 13.59ZM255.62 13.63C254.92 13.73 254.32 13.82 253.62 13.92L253.72 14.52L253.82 14.92C254.02 14.92 254.12 14.92 254.32 14.82C254.82 14.73 255.32 14.63 255.82 14.63L255.62 13.63ZM349.32 14.31L349.22 14.71L349.12 15.21C349.32 15.21 349.62 15.31 349.92 15.31C350.32 15.42 350.72 15.42 351.12 15.52L351.32 14.52C350.62 14.52 349.92 14.41 349.32 14.31ZM251.62 14.31C250.92 14.41 250.32 14.5 249.62 14.6L249.72 15.2L249.81 15.6C250.01 15.6 250.11 15.5 250.31 15.5C250.82 15.41 251.32 15.31 251.82 15.21L251.62 14.31ZM353.22 14.93L353.12 15.33L353.01 15.83C353.21 15.83 353.51 15.93 353.81 15.93C354.21 16.04 354.61 16.14 355.01 16.14L355.22 15.14C354.52 15.24 353.92 15.13 353.22 14.93ZM247.72 14.99C247.02 15.09 246.42 15.28 245.72 15.38L245.81 15.98L245.91 16.38C246.11 16.38 246.21 16.28 246.41 16.28C246.91 16.19 247.41 16.09 247.91 15.99L247.72 14.99ZM357.21 15.75L357.11 16.15L357.01 16.75C357.21 16.75 357.51 16.85 357.81 16.95C358.21 17.06 358.61 17.16 359.01 17.16L359.21 16.16C358.51 15.96 357.81 15.85 357.21 15.75ZM243.71 15.77C243.01 15.87 242.41 16.06 241.71 16.16L241.81 16.76L241.91 17.16C242.01 17.16 242.21 17.06 242.41 17.06C242.91 16.97 243.41 16.87 243.91 16.77L243.71 15.77ZM361.11 16.57L361.01 16.97L360.91 17.57C361.11 17.67 361.41 17.67 361.7 17.77C362.1 17.88 362.5 17.98 362.9 17.98L363.11 16.98C362.41 16.78 361.81 16.67 361.11 16.57ZM239.81 16.55C239.21 16.75 238.51 16.84 237.81 16.94L237.9 17.54L238 17.94C238.2 17.94 238.3 17.84 238.4 17.84C238.9 17.74 239.4 17.65 239.9 17.55L239.81 16.55ZM365.01 17.39L364.9 17.79L364.8 18.39C365 18.49 365.3 18.49 365.6 18.59C366 18.7 366.4 18.8 366.8 18.9L367 17.9C366.31 17.7 365.71 17.49 365.01 17.39ZM235.9 17.43C235.2 17.53 234.6 17.72 233.9 17.92L234 18.52L234.1 18.92C234.3 18.92 234.4 18.82 234.5 18.82C235 18.72 235.5 18.63 236 18.43L235.9 17.43ZM368.9 18.31L368.8 18.71L368.7 19.31C369 19.41 369.2 19.41 369.5 19.51C369.9 19.61 370.29 19.72 370.69 19.82L370.9 18.82C370.2 18.62 369.6 18.41 368.9 18.31ZM232 18.31C231.4 18.51 230.7 18.6 230.1 18.8L230.29 19.4L230.39 19.8C230.49 19.8 230.69 19.7 230.79 19.7C231.29 19.61 231.79 19.51 232.3 19.31L232 18.31ZM372.8 19.23L372.7 19.63L372.59 20.23C372.89 20.33 373.09 20.33 373.39 20.43C373.79 20.53 374.19 20.64 374.49 20.74L374.69 19.74C374.1 19.64 373.5 19.43 372.8 19.23ZM228.1 19.29C227.49 19.49 226.79 19.58 226.19 19.78L226.39 20.38L226.49 20.78C226.59 20.78 226.79 20.68 226.89 20.68C227.39 20.58 227.89 20.39 228.39 20.29L228.1 19.29ZM376.69 20.25L376.59 20.65L376.39 21.25C376.69 21.35 376.89 21.35 377.19 21.45C377.59 21.55 377.98 21.66 378.28 21.76L378.59 20.76C377.99 20.66 377.29 20.45 376.69 20.25ZM224.29 20.37C223.69 20.57 222.99 20.76 222.39 20.86L222.58 21.46L222.68 21.86C222.78 21.86 222.98 21.76 223.08 21.76C223.58 21.67 224.08 21.47 224.58 21.37L224.29 20.37ZM380.59 21.37L380.48 21.77L380.28 22.37C380.58 22.47 380.78 22.47 381.08 22.57C381.48 22.67 381.88 22.78 382.18 22.88L382.48 21.88C381.78 21.78 381.19 21.57 380.59 21.37ZM220.38 21.45C219.78 21.65 219.08 21.84 218.48 22.04L218.68 22.64L218.78 23.04C218.88 23.04 218.98 22.94 219.18 22.94C219.68 22.74 220.18 22.65 220.68 22.45L220.38 21.45ZM384.38 22.49L384.28 22.89L384.08 23.49C384.38 23.59 384.57 23.69 384.87 23.69C385.27 23.79 385.57 23.89 385.97 24L386.28 23C385.68 22.89 385.08 22.69 384.38 22.49ZM216.58 22.53C215.98 22.73 215.28 22.92 214.68 23.12L214.87 23.72L214.97 24.12C215.07 24.12 215.17 24.02 215.37 24.02C215.87 23.82 216.37 23.73 216.87 23.53L216.58 22.53ZM388.27 23.71L388.17 24.11L387.97 24.71C388.27 24.81 388.47 24.91 388.77 24.91C389.17 25.01 389.47 25.11 389.87 25.22L390.17 24.22C389.47 24.11 388.87 23.91 388.27 23.71ZM212.67 23.71C212.07 23.91 211.37 24.1 210.77 24.3L210.97 24.9L211.06 25.3C211.16 25.3 211.26 25.2 211.36 25.2C211.87 25 212.37 24.91 212.87 24.71L212.67 23.71ZM392.07 24.93L391.97 25.33L391.76 25.93C392.06 26.03 392.26 26.13 392.56 26.23C392.96 26.33 393.26 26.43 393.66 26.63L393.96 25.64C393.37 25.33 392.67 25.13 392.07 24.93ZM208.87 24.99C208.26 25.19 207.56 25.38 206.96 25.58L207.16 26.18L207.26 26.58C207.36 26.58 207.46 26.48 207.56 26.48C208.06 26.28 208.56 26.19 209.06 25.99L208.87 24.99ZM395.86 26.25L395.76 26.55L395.56 27.14C395.86 27.25 396.06 27.35 396.36 27.45C396.75 27.55 397.05 27.65 397.45 27.85L397.76 26.86C397.16 26.65 396.46 26.45 395.86 26.25ZM205.16 26.27C204.56 26.47 203.86 26.76 203.26 26.96L203.45 27.56L203.55 27.96C203.65 27.96 203.75 27.86 203.85 27.86C204.35 27.66 204.85 27.47 205.45 27.27L205.16 26.27ZM399.65 27.57L399.55 27.86L399.35 28.46C399.65 28.57 399.85 28.67 400.15 28.77C400.55 28.87 400.85 29.07 401.25 29.17L401.65 28.28C400.95 28.07 400.25 27.77 399.65 27.57ZM201.35 27.55C200.75 27.75 200.15 28.04 199.45 28.24L199.65 28.84L199.74 29.24C199.84 29.24 199.94 29.14 200.04 29.14C200.55 28.95 201.05 28.75 201.65 28.55L201.35 27.55ZM403.45 28.98L403.35 29.28L403.14 29.88C403.44 29.98 403.74 30.09 403.94 30.19C404.24 30.29 404.64 30.49 404.94 30.59L405.34 29.69C404.65 29.49 404.05 29.19 403.45 28.98ZM197.54 29.03C196.94 29.23 196.34 29.52 195.64 29.72L195.84 30.32L195.94 30.72C196.04 30.72 196.14 30.62 196.24 30.62C196.74 30.43 197.24 30.23 197.74 30.03L197.54 29.03ZM407.14 30.4L407.04 30.7L406.84 31.3C407.14 31.4 407.43 31.5 407.63 31.61C408.03 31.71 408.33 31.91 408.63 32.01L409.04 31.11C408.44 30.91 407.84 30.71 407.14 30.4ZM193.84 30.41C193.24 30.61 192.64 30.9 191.93 31.2L192.13 31.8L192.23 32.1C192.33 32.1 192.43 32 192.53 32C193.03 31.81 193.53 31.61 194.13 31.41L193.84 30.41ZM410.93 31.92L410.83 32.22L410.63 32.82C410.93 32.92 411.23 33.02 411.43 33.12C411.73 33.23 412.13 33.43 412.42 33.53L412.83 32.63C412.13 32.43 411.53 32.23 410.93 31.92ZM190.13 31.89C189.53 32.19 188.93 32.38 188.33 32.68L188.52 33.28L188.72 33.68C188.82 33.68 188.92 33.58 189.02 33.58C189.52 33.39 190.02 33.19 190.52 32.99L190.13 31.89ZM414.62 33.54L414.52 33.84L414.22 34.44C414.52 34.54 414.82 34.64 415.02 34.84C415.32 34.94 415.72 35.15 416.02 35.25L416.42 34.35C415.82 34.05 415.22 33.74 414.62 33.54ZM186.42 33.47C185.82 33.77 185.22 33.97 184.62 34.26L184.81 34.86L184.91 35.16C185.01 35.16 185.11 35.06 185.21 35.07C185.71 34.87 186.22 34.57 186.82 34.37L186.42 33.47ZM418.32 35.06L418.22 35.36L417.91 35.96C418.21 36.06 418.41 36.16 418.71 36.36C419.01 36.46 419.41 36.66 419.71 36.77L420.11 35.87C419.51 35.67 418.92 35.36 418.32 35.06ZM182.81 35.05C182.21 35.35 181.61 35.55 181.01 35.84L181.31 36.44L181.51 36.75C181.61 36.75 181.71 36.65 181.71 36.65C182.21 36.45 182.71 36.15 183.31 35.96L182.81 35.05ZM421.91 36.78L421.81 37.08L421.5 37.67C421.8 37.78 422 37.88 422.3 38.08C422.6 38.18 423 38.38 423.3 38.58L423.7 37.69C423.21 37.28 422.61 37.08 421.91 36.78ZM179.21 36.73C178.6 37.03 178 37.33 177.4 37.62L177.7 38.23L177.9 38.53C178 38.53 178.1 38.43 178.1 38.43C178.6 38.23 179.1 37.93 179.7 37.74L179.21 36.73ZM425.6 38.5L425.5 38.79L425.19 39.39C425.49 39.49 425.79 39.7 425.99 39.8C426.29 39.9 426.59 40.1 426.99 40.3L427.39 39.4C426.8 39 426.2 38.8 425.6 38.5ZM175.6 38.41C174.99 38.71 174.39 39.01 173.79 39.31L174.09 39.91L174.29 40.21C174.39 40.21 174.49 40.11 174.49 40.11C174.99 39.81 175.49 39.61 176.09 39.32L175.6 38.41ZM429.19 40.21L429.09 40.51L428.79 41.11C429.09 41.21 429.38 41.41 429.58 41.52C429.88 41.62 430.18 41.82 430.58 42.02L430.99 41.12C430.39 40.82 429.79 40.52 429.19 40.21ZM171.99 40.2C171.39 40.49 170.78 40.79 170.18 41.09L170.48 41.69L170.68 41.99C170.78 41.99 170.88 41.89 170.88 41.89C171.38 41.59 171.88 41.4 172.48 41.1L171.99 40.2ZM432.78 42.03L432.68 42.33L432.38 42.93C432.68 43.03 432.98 43.23 433.17 43.33C433.47 43.53 433.77 43.64 434.07 43.84L434.58 42.94C433.98 42.64 433.38 42.33 432.78 42.03ZM168.38 41.98C167.78 42.27 167.17 42.57 166.57 42.87L166.87 43.47L167.07 43.77C167.17 43.77 167.17 43.67 167.27 43.67C167.77 43.37 168.27 43.18 168.87 42.88L168.38 41.98ZM436.37 43.85L436.27 44.15L435.97 44.75C436.27 44.95 436.57 45.05 436.77 45.15C437.06 45.35 437.36 45.45 437.66 45.66L438.17 44.76C437.57 44.56 436.97 44.25 436.37 43.85ZM164.87 43.86C164.27 44.16 163.67 44.45 163.06 44.75L163.36 45.35L163.56 45.65C163.66 45.65 163.66 45.55 163.76 45.55C164.26 45.26 164.76 44.96 165.36 44.76L164.87 43.86ZM439.86 45.77L439.76 46.07L439.46 46.66C439.76 46.87 440.06 46.97 440.26 47.17C440.55 47.37 440.85 47.47 441.15 47.67L441.66 46.78C441.06 46.47 440.46 46.17 439.86 45.77ZM161.36 45.74C160.76 46.04 160.16 46.43 159.65 46.73L159.95 47.33L160.15 47.63C160.25 47.63 160.25 47.53 160.35 47.53C160.85 47.24 161.35 46.94 161.95 46.64L161.36 45.74ZM443.35 47.78L443.25 48.08L442.95 48.68C443.25 48.88 443.55 48.98 443.74 49.19C444.04 49.39 444.34 49.49 444.64 49.69L445.15 48.79C444.55 48.39 443.95 48.09 443.35 47.78ZM157.85 47.62C157.25 47.92 156.65 48.32 156.14 48.61L156.44 49.21L156.64 49.52C156.64 49.52 156.74 49.42 156.84 49.42C157.34 49.12 157.84 48.82 158.44 48.52L157.85 47.62ZM446.84 49.8L446.74 50L446.34 50.6C446.64 50.8 446.94 50.9 447.13 51.1C447.43 51.3 447.73 51.41 448.03 51.61L448.54 50.71C448.04 50.41 447.44 50.1 446.84 49.8ZM154.44 49.6C153.84 49.9 153.34 50.3 152.73 50.59L153.03 51.2L153.23 51.5L153.33 51.4C153.83 51.1 154.33 50.8 154.93 50.51L154.44 49.6ZM450.33 51.82L450.23 52.02L449.83 52.62C450.13 52.82 450.33 52.92 450.62 53.12C450.92 53.32 451.22 53.52 451.52 53.62L452.03 52.73C451.43 52.52 450.93 52.12 450.33 51.82ZM150.93 51.69C150.33 51.98 149.82 52.38 149.22 52.68L149.52 53.18L149.72 53.48C149.72 53.48 149.82 53.38 149.92 53.38C150.42 53.08 150.92 52.78 151.42 52.39L150.93 51.69ZM453.72 53.94L453.62 54.13L453.22 54.73C453.52 54.93 453.71 55.04 454.01 55.24C454.31 55.44 454.61 55.64 454.91 55.74L455.42 54.94C454.92 54.64 454.32 54.24 453.72 53.94ZM147.52 53.77C146.92 54.16 146.41 54.46 145.81 54.86L146.11 55.36L146.31 55.66L146.41 55.56C146.91 55.26 147.41 54.87 147.91 54.57L147.52 53.77ZM457.11 56.05L457.01 56.25L456.61 56.85C456.9 57.05 457.2 57.15 457.4 57.35C457.7 57.56 458 57.76 458.3 57.86L458.8 57.06C458.21 56.76 457.71 56.46 457.11 56.05ZM144.21 55.85C143.6 56.25 143.1 56.54 142.5 56.94L142.9 57.44L143.1 57.74L143.2 57.64C143.7 57.35 144.2 56.95 144.8 56.65L144.21 55.85ZM460.5 58.27L460.4 58.47L459.99 59.07C460.29 59.27 460.49 59.47 460.79 59.67C461.09 59.87 461.39 60.07 461.59 60.27L462.19 59.48C461.59 58.97 461 58.67 460.5 58.27ZM140.8 58.03C140.29 58.43 139.69 58.83 139.09 59.12L139.49 59.72L139.69 60.03C139.69 60.03 139.79 60.03 139.79 59.93C140.29 59.63 140.79 59.23 141.29 58.93L140.8 58.03ZM463.79 60.49L463.69 60.68L463.28 61.28C463.58 61.48 463.88 61.69 464.08 61.89C464.38 62.09 464.68 62.29 464.88 62.39L465.48 61.59C464.88 61.29 464.39 60.89 463.79 60.49ZM137.48 60.31C136.98 60.71 136.38 61.11 135.88 61.41L136.28 61.91L136.47 62.21C136.47 62.21 136.57 62.21 136.57 62.11C137.08 61.81 137.58 61.41 138.08 61.02L137.48 60.31ZM467.08 62.8L466.97 63L466.57 63.6C466.87 63.8 467.07 64 467.37 64.2C467.67 64.4 467.87 64.61 468.16 64.81L468.77 64.01C468.17 63.51 467.67 63.2 467.08 62.8ZM134.17 62.6C133.67 62.99 133.07 63.39 132.57 63.79L132.96 64.29L133.16 64.59C133.16 64.59 133.16 64.59 133.26 64.49C133.76 64.09 134.27 63.8 134.77 63.4L134.17 62.6ZM470.36 65.12L470.26 65.32L469.86 65.92C470.16 66.12 470.36 66.32 470.66 66.52C470.96 66.72 471.15 66.92 471.45 67.12L472.06 66.33C471.46 65.92 470.96 65.52 470.36 65.12ZM130.96 64.88C130.46 65.28 129.86 65.67 129.35 66.07L129.75 66.57L129.95 66.87C129.95 66.87 129.95 66.87 130.05 66.77C130.55 66.38 131.05 65.98 131.56 65.68L130.96 64.88ZM473.65 67.53L473.55 67.73L473.05 68.33C473.35 68.53 473.64 68.73 473.84 68.93C474.14 69.14 474.34 69.34 474.64 69.54L475.24 68.74C474.65 68.24 474.15 67.84 473.65 67.53ZM127.75 67.26C127.25 67.66 126.64 68.06 126.14 68.45L126.54 68.96L126.74 69.26C126.74 69.26 126.74 69.26 126.84 69.26C127.34 68.86 127.84 68.46 128.34 68.07L127.75 67.26ZM476.84 69.95L476.74 70.15L476.23 70.75C476.53 70.95 476.73 71.15 477.03 71.35C477.33 71.55 477.53 71.75 477.83 71.95L478.43 71.16C477.83 70.75 477.34 70.25 476.84 69.95ZM124.54 69.65C124.03 70.04 123.43 70.44 122.93 70.84L123.33 71.34L123.53 71.64L123.53 71.64C124.03 71.24 124.53 70.85 125.03 70.45L124.54 69.65ZM479.93 72.37L479.83 72.56L479.32 73.16C479.52 73.26 479.62 73.46 479.82 73.56C479.92 73.66 480.02 73.77 480.12 73.77C480.32 73.97 480.62 74.17 480.92 74.37L480.92 74.37L481.52 73.67C481.02 73.17 480.52 72.77 479.93 72.37ZM121.32 72.13C120.82 72.53 120.32 72.92 119.72 73.32L120.11 73.82L120.31 74.12L120.31 74.12C120.81 73.73 121.32 73.33 121.82 72.93L121.32 72.13ZM483.11 74.88L483.01 75.08L482.51 75.68C482.71 75.78 482.81 75.98 483.01 76.08C483.11 76.18 483.21 76.28 483.31 76.28C483.51 76.48 483.8 76.68 484 76.88L484.1 76.79L484.61 76.09C484.11 75.69 483.61 75.28 483.11 74.88ZM118.21 74.61C117.71 75.01 117.21 75.41 116.7 75.9L117.1 76.41L117.3 76.61L117.3 76.61C117.8 76.21 118.3 75.81 118.81 75.41L118.21 74.61ZM486.2 77.4L486.1 77.6L485.6 78.19C485.8 78.29 485.9 78.49 486.09 78.6C486.19 78.7 486.29 78.8 486.39 78.8C486.59 79 486.89 79.2 487.09 79.4L487.29 79.2L487.79 78.6C487.2 78.3 486.7 77.8 486.2 77.4ZM115.1 77.1C114.6 77.49 114.09 77.99 113.59 78.39L113.99 78.89L114.19 79.09L114.19 79.09C114.69 78.69 115.19 78.3 115.69 77.8L115.1 77.1ZM489.29 80.01L489.19 80.21L488.68 80.81C488.88 80.91 488.98 81.11 489.18 81.31C489.28 81.41 489.38 81.51 489.48 81.51C489.68 81.71 489.98 81.91 490.18 82.12L490.38 81.92L490.78 81.42C490.28 80.92 489.79 80.41 489.29 80.01ZM112.08 79.68C111.58 80.08 111.08 80.57 110.58 80.97L110.97 81.47L111.17 81.67L111.17 81.67C111.68 81.28 112.18 80.78 112.68 80.38L112.08 79.68ZM492.27 82.63L492.17 82.83L491.67 83.42C491.87 83.62 491.97 83.72 492.17 83.92C492.27 84.03 492.37 84.13 492.47 84.13C492.67 84.33 492.96 84.53 493.16 84.73L493.46 84.43L493.87 83.93C493.27 83.53 492.77 83.03 492.27 82.63ZM109.47 82.86L108.97 82.36C108.47 82.76 107.97 83.26 107.46 83.65L108.16 84.36C108.66 83.96 109.16 83.46 109.67 83.07L109.47 82.86ZM496.65 86.55C496.16 86.14 495.76 85.74 495.26 85.24L495.16 85.34L494.66 85.94C494.86 86.14 495.06 86.24 495.15 86.44C495.25 86.54 495.35 86.64 495.45 86.64C495.65 86.84 495.85 87.04 496.05 87.14L496.15 87.24L496.45 86.95L496.65 86.55C496.75 86.65 496.65 86.65 496.65 86.55ZM106.55 85.55L106.06 85.05C105.86 85.25 105.76 85.35 105.55 85.44C105.75 85.65 106.05 85.95 106.25 86.15C106.45 85.95 106.55 85.85 106.75 85.75L106.55 85.55ZM516.15 106.24C515.95 106.44 515.65 106.74 515.45 106.94C515.55 107.04 515.65 107.14 515.75 107.24L515.75 107.24L516.45 106.64C516.35 106.44 516.25 106.34 516.15 106.24ZM85.95 105.04C85.55 105.44 85.25 105.83 84.85 106.23L85.54 106.94C85.95 106.54 86.25 106.14 86.65 105.74C86.45 105.54 86.25 105.24 85.95 105.04ZM518.24 108.65C518.04 108.45 517.94 108.25 517.74 108.05L517.64 108.15L517.04 108.75C517.24 109.05 517.54 109.35 517.84 109.55C518.04 109.75 518.23 109.95 518.43 110.15L518.53 110.05L519.14 109.46C518.84 109.25 518.54 108.95 518.24 108.65ZM84.04 108.23L83.54 107.83C83.14 108.32 82.63 108.82 82.23 109.32L83.03 110.02C83.43 109.52 83.83 109.03 84.24 108.63C84.24 108.63 84.24 108.53 84.34 108.53L84.04 108.23ZM520.93 111.67C520.73 111.46 520.63 111.26 520.43 111.06L520.33 111.16L519.63 111.76C519.82 112.06 520.12 112.36 520.32 112.66C520.52 112.86 520.72 113.06 520.92 113.26L521.12 113.17L521.72 112.67C521.42 112.27 521.12 111.97 520.93 111.67ZM81.42 111.21L80.92 110.71C80.52 111.21 80.02 111.71 79.62 112.2L80.41 112.81C80.82 112.31 81.22 111.81 81.62 111.41L81.72 111.32L81.42 111.21ZM523.51 114.78C523.31 114.58 523.21 114.38 523.01 114.18L522.91 114.27L522.21 114.87C522.41 115.17 522.71 115.47 522.9 115.77C523.1 115.98 523.3 116.18 523.5 116.48L523.7 116.28L524.2 115.88C524.01 115.38 523.71 115.08 523.51 114.78ZM78.81 114.3L78.31 113.9C77.91 114.4 77.4 114.89 77 115.39L77.8 115.99C78.2 115.5 78.6 115 79 114.6L79.11 114.5L78.81 114.3ZM525.99 117.79C525.8 117.59 525.7 117.39 525.5 117.19L525.4 117.29L524.69 117.88C524.89 118.18 525.19 118.49 525.39 118.79C525.59 118.99 525.79 119.19 525.89 119.49L526.19 119.29L526.69 118.89C526.59 118.49 526.29 118.19 525.99 117.79ZM76.29 117.39L75.79 116.98C75.39 117.48 74.99 117.98 74.58 118.58L75.38 119.18C75.78 118.68 76.19 118.19 76.59 117.79L76.69 117.69L76.29 117.39ZM528.48 121C528.28 120.8 528.18 120.6 527.98 120.4L527.88 120.5L527.18 121.09C527.38 121.4 527.67 121.7 527.87 122C528.07 122.2 528.27 122.5 528.37 122.7L528.77 122.4L529.17 122.1C529.07 121.6 528.78 121.3 528.48 121ZM73.77 120.47L73.28 120.07C72.87 120.57 72.47 121.07 72.07 121.66L72.87 122.27C73.27 121.77 73.67 121.27 73.97 120.77L74.07 120.67L73.77 120.47ZM530.96 124.11C530.86 123.91 530.66 123.71 530.47 123.51L530.36 123.61L529.66 124.11C529.86 124.41 530.16 124.71 530.36 125.01C530.56 125.21 530.66 125.41 530.85 125.71L531.36 125.41L531.66 125.12C531.46 124.82 531.26 124.41 530.96 124.11ZM70.76 123.16C70.36 123.65 69.96 124.25 69.55 124.75L70.35 125.35C70.75 124.86 71.16 124.26 71.56 123.76L70.76 123.16ZM533.35 127.32C533.25 127.12 533.05 126.92 532.85 126.72L532.75 126.82L532.05 127.32C532.24 127.62 532.54 127.92 532.74 128.22C532.94 128.42 533.04 128.72 533.24 128.92L533.74 128.53L534.04 128.33C533.84 127.93 533.64 127.63 533.35 127.32ZM68.34 126.34C67.94 126.84 67.54 127.44 67.14 127.94L67.93 128.54C68.34 128.04 68.74 127.44 69.14 126.95L68.34 126.34ZM535.73 130.54C535.63 130.34 535.43 130.13 535.23 129.93L535.13 130.03L534.43 130.53C534.63 130.83 534.93 131.13 535.12 131.43C535.32 131.63 535.42 131.83 535.62 132.14L536.22 131.74L536.42 131.54C536.23 131.24 536.03 130.84 535.73 130.54ZM65.93 129.63C65.53 130.13 65.12 130.73 64.72 131.22L65.52 131.83C65.92 131.33 66.32 130.73 66.72 130.23L65.93 129.63ZM538.01 133.75C537.91 133.55 537.71 133.35 537.62 133.15L537.52 133.24L536.81 133.74C537.01 134.04 537.31 134.34 537.51 134.74C537.71 134.95 537.81 135.15 538 135.45L538.71 134.95L538.81 134.85C538.51 134.45 538.31 134.15 538.01 133.75ZM63.61 132.82C63.21 133.32 62.81 133.91 62.5 134.51L63.3 135.12C63.7 134.62 64.11 134.02 64.41 133.52L63.61 132.82ZM540.3 137.06C540.2 136.86 540 136.66 539.9 136.46L539.8 136.46L539 136.95C539.19 137.25 539.39 137.55 539.69 137.95C539.89 138.16 539.99 138.46 540.19 138.66L540.99 138.16L541.09 138.06C540.79 137.76 540.59 137.36 540.3 137.06ZM61.29 136.1C60.89 136.6 60.49 137.2 60.19 137.8L60.98 138.4C61.39 137.8 61.79 137.31 62.09 136.71L61.29 136.1ZM542.58 140.37C542.48 140.17 542.28 139.97 542.18 139.77L542.08 139.77L541.28 140.26C541.48 140.56 541.68 140.86 541.97 141.27C542.17 141.47 542.27 141.77 542.47 141.97L543.27 141.47L543.27 141.47C542.98 141.07 542.78 140.77 542.58 140.37ZM59.08 139.49C58.67 140.09 58.37 140.59 57.97 141.19L58.77 141.69C59.17 141.09 59.47 140.59 59.87 140L59.08 139.49ZM544.36 143.08L544.36 143.08L543.56 143.57C543.76 143.87 543.96 144.17 544.16 144.58C544.36 144.78 544.45 145.08 544.65 145.28L545.46 144.78C545.06 144.18 544.66 143.68 544.36 143.08ZM57.56 143.28L56.86 142.88C56.46 143.48 56.15 143.98 55.75 144.57L56.55 145.08C56.85 144.58 57.15 144.08 57.46 143.58C57.46 143.48 57.56 143.48 57.56 143.38L57.56 143.28ZM546.45 146.49L546.45 146.49L545.64 146.98C545.84 147.28 546.04 147.68 546.24 147.99C546.34 148.19 546.54 148.49 546.64 148.69L547.44 148.19C547.14 147.59 546.84 147.09 546.45 146.49ZM55.24 146.57L54.64 146.17C54.24 146.77 53.94 147.26 53.53 147.86L54.43 148.37C54.73 147.87 55.04 147.37 55.34 146.87C55.34 146.77 55.44 146.67 55.44 146.67L55.24 146.57ZM548.63 149.9L548.63 149.9L547.73 150.39C547.93 150.69 548.12 151.09 548.32 151.4C548.42 151.6 548.62 151.9 548.72 152.1L549.62 151.6C549.22 151 548.93 150.4 548.63 149.9ZM53.22 149.96L52.63 149.56C52.32 150.15 51.92 150.65 51.62 151.25L52.51 151.76C52.82 151.26 53.12 150.76 53.42 150.26C53.42 150.16 53.52 150.06 53.52 150.06L53.22 149.96ZM550.61 153.31L550.61 153.31L549.71 153.8C549.91 154.1 550.11 154.5 550.3 154.8C550.4 155 550.6 155.31 550.7 155.51L551.6 155.01C551.31 154.41 551.01 153.91 550.61 153.31ZM51.11 153.45L50.51 153.14C50.2 153.74 49.8 154.34 49.5 154.84L50.4 155.34C50.7 154.85 51 154.35 51.3 153.85C51.3 153.75 51.4 153.65 51.4 153.65L51.11 153.45ZM552.6 156.72L552.6 156.72L551.69 157.21C551.89 157.51 552.09 157.91 552.29 158.21C552.39 158.41 552.58 158.72 552.68 158.92L553.59 158.42C553.29 157.92 552.99 157.32 552.6 156.72ZM49.09 156.84L48.49 156.53C48.19 157.13 47.78 157.73 47.48 158.33L48.38 158.83C48.68 158.33 48.88 157.84 49.19 157.34C49.19 157.24 49.29 157.14 49.39 157.04L49.09 156.84ZM554.58 160.22L554.58 160.22L553.67 160.72C553.87 161.12 554.07 161.42 554.27 161.72C554.37 161.92 554.57 162.22 554.67 162.42L555.57 161.93C555.27 161.43 554.87 160.83 554.58 160.22ZM47.17 160.33L46.57 160.02C46.27 160.62 45.97 161.22 45.56 161.82L46.46 162.32C46.76 161.82 46.96 161.32 47.27 160.83C47.27 160.73 47.37 160.63 47.47 160.53L47.17 160.33ZM556.46 163.73L556.46 163.73L555.56 164.23C555.75 164.63 555.95 164.93 556.15 165.33C556.25 165.53 556.35 165.83 556.55 166.03L557.45 165.54C557.15 164.94 556.86 164.34 556.46 163.73ZM45.25 163.92L44.65 163.61C44.35 164.21 44.05 164.81 43.74 165.41L44.64 165.91C44.94 165.41 45.15 164.91 45.45 164.42C45.55 164.32 45.55 164.22 45.65 164.12L45.25 163.92ZM558.34 167.34L558.34 167.34L557.44 167.84C557.64 168.24 557.83 168.54 558.03 168.94C558.13 169.14 558.23 169.44 558.43 169.64L559.33 169.15C558.94 168.45 558.64 167.84 558.34 167.34ZM43.33 167.4L42.74 167.1C42.43 167.7 42.13 168.3 41.83 168.9L42.72 169.4C42.93 168.9 43.23 168.4 43.53 167.91C43.53 167.81 43.63 167.71 43.73 167.61L43.33 167.4ZM560.12 170.85L560.12 170.85L559.22 171.35C559.42 171.75 559.62 172.05 559.71 172.45C559.81 172.65 559.91 172.95 560.01 173.15L560.91 172.75C560.72 172.05 560.42 171.45 560.12 170.85ZM41.52 170.99L40.92 170.69C40.61 171.29 40.31 171.89 40.01 172.49L40.91 172.89C41.11 172.39 41.41 171.89 41.61 171.39C41.61 171.29 41.71 171.2 41.81 171.1L41.52 170.99ZM561.9 174.46L561.9 174.46L561 174.85C561.2 175.26 561.4 175.56 561.5 175.96C561.6 176.16 561.69 176.46 561.79 176.66L562.7 176.26C562.5 175.66 562.2 175.06 561.9 174.46ZM39.8 174.58L39.2 174.28C38.9 174.88 38.59 175.48 38.29 176.08L39.19 176.48C39.39 175.98 39.69 175.48 39.89 174.98C39.9 174.89 40 174.79 40.1 174.69L39.8 174.58ZM563.59 178.07L563.59 178.07L562.68 178.46C562.88 178.86 562.98 179.16 563.18 179.56C563.28 179.76 563.38 180.06 563.47 180.27L564.38 179.87C564.18 179.27 563.88 178.67 563.59 178.07ZM38.08 178.27L37.48 177.97C37.18 178.57 36.97 179.17 36.67 179.77L37.57 180.17C37.77 179.67 38.07 179.17 38.28 178.68C38.38 178.58 38.38 178.48 38.48 178.38L38.08 178.27ZM565.27 181.67L565.27 181.67L564.37 182.07C564.56 182.47 564.66 182.77 564.86 183.17L564.86 183.17C564.96 183.37 565.06 183.67 565.16 183.87L566.06 183.48C565.86 182.88 565.56 182.28 565.27 181.67ZM36.36 181.87L35.76 181.56C35.46 182.16 35.26 182.76 34.95 183.36L35.85 183.76C36.05 183.26 36.25 182.76 36.46 182.27C36.56 182.17 36.56 182.07 36.66 181.87L36.36 181.87ZM567.34 186.48C567.14 186.08 567.05 185.68 566.85 185.38L565.95 185.78C566.14 186.18 566.24 186.48 566.44 186.88L566.44 186.88C566.54 187.08 566.64 187.38 566.74 187.58L567.64 187.19C567.54 186.88 567.44 186.68 567.34 186.48ZM34.74 185.56L34.14 185.25C33.84 185.85 33.64 186.45 33.33 187.15L34.23 187.55C34.43 187.05 34.64 186.56 34.84 186.06C34.84 185.96 34.94 185.86 34.94 185.66L34.74 185.56ZM568.92 190.09C568.73 189.69 568.63 189.29 568.43 188.99L567.53 189.38C567.73 189.78 567.82 190.19 568.02 190.49C568.12 190.69 568.22 190.99 568.32 191.19L569.22 190.79C569.12 190.59 569.02 190.39 568.92 190.09ZM33.22 189.25L32.62 188.94C32.42 189.54 32.12 190.14 31.81 190.84L32.71 191.24C32.91 190.75 33.12 190.25 33.32 189.75C33.42 189.65 33.42 189.45 33.52 189.35L33.22 189.25ZM570.41 193.8C570.21 193.4 570.11 193 569.91 192.7L569.01 193.09C569.11 193.49 569.3 193.89 569.5 194.19C569.6 194.39 569.7 194.69 569.8 194.89L570.7 194.5C570.6 194.3 570.5 194.1 570.41 193.8ZM31.1 192.74C30.9 193.33 30.6 193.93 30.39 194.63L31.29 195.04C31.49 194.54 31.7 194.04 31.9 193.54C32 193.44 32 193.24 32.1 193.14L31.1 192.74ZM571.89 197.6C571.79 197.2 571.59 196.8 571.49 196.4L570.59 196.8L570.59 196.8C570.79 197.4 571.08 198 571.28 198.7L572.18 198.31C571.98 198 571.98 197.8 571.89 197.6ZM30.28 196.63L29.58 196.43C29.38 197.03 29.08 197.62 28.88 198.32L29.77 198.63C29.98 198.13 30.18 197.63 30.28 197.13C30.38 197.03 30.38 196.83 30.48 196.73L30.28 196.63ZM573.27 201.31C573.17 200.91 572.97 200.51 572.87 200.11L571.97 200.4L571.97 200.4C572.17 201 572.47 201.61 572.66 202.31L573.56 202.01C573.46 201.81 573.37 201.61 573.27 201.31ZM28.86 200.42L28.27 200.22C28.06 200.82 27.76 201.52 27.56 202.11L28.45 202.42C28.66 201.92 28.76 201.42 28.96 200.92C29.06 200.82 29.06 200.62 29.16 200.52L28.86 200.42ZM574.55 205.12L574.15 203.91L573.25 204.21L573.25 204.21C573.45 204.81 573.65 205.51 573.94 206.11L574.84 205.82C574.74 205.62 574.65 205.32 574.55 205.12ZM27.44 204.21L26.85 204.01C26.64 204.61 26.44 205.31 26.14 205.91L27.03 206.21C27.24 205.71 27.34 205.21 27.54 204.71C27.54 204.61 27.64 204.41 27.74 204.32L27.44 204.21ZM575.83 208.92C575.73 208.52 575.53 208.12 575.43 207.72L574.53 208.01L574.53 208.01C574.73 208.62 574.93 209.32 575.12 209.92L576.12 209.62C576.03 209.42 575.93 209.12 575.83 208.92ZM26.13 208.01L25.53 207.8C25.32 208.4 25.12 209.1 24.92 209.7L25.92 210C26.12 209.51 26.22 209.01 26.42 208.51C26.52 208.31 26.52 208.21 26.63 208.01L26.13 208.01ZM577.11 212.73C577.01 212.33 576.81 211.93 576.71 211.53L575.81 211.82L575.81 211.82C576.01 212.42 576.21 213.12 576.4 213.72L577.4 213.43C577.21 213.23 577.21 212.93 577.11 212.73ZM24.91 211.8L24.31 211.6C24.1 212.19 23.9 212.89 23.7 213.49L24.7 213.8C24.8 213.3 25 212.8 25.1 212.4C25.1 212.2 25.2 212.1 25.31 211.9L24.91 211.8ZM578.29 216.53C578.19 216.13 578.09 215.73 577.9 215.33L576.99 215.63L576.99 215.63C577.19 216.23 577.39 216.93 577.58 217.53L578.59 217.23C578.39 217.03 578.39 216.83 578.29 216.53ZM23.69 215.59L23.09 215.39C22.88 215.99 22.68 216.69 22.48 217.28L23.48 217.59C23.58 217.09 23.78 216.59 23.88 216.19C23.88 215.99 23.99 215.89 23.99 215.69L23.69 215.59ZM579.37 220.44C579.27 220.04 579.17 219.64 579.08 219.24L578.17 219.53L578.17 219.53C578.37 220.13 578.57 220.83 578.66 221.43L579.67 221.14C579.57 220.84 579.47 220.64 579.37 220.44ZM22.57 219.48L21.97 219.28C21.76 219.88 21.56 220.58 21.46 221.18L22.46 221.48C22.56 220.98 22.76 220.59 22.86 220.09C22.86 219.89 22.97 219.79 22.97 219.59L22.57 219.48ZM580.45 224.24C580.35 223.84 580.25 223.44 580.16 223.04L579.25 223.34L579.25 223.34C579.45 223.94 579.65 224.64 579.74 225.24L580.75 224.94C580.65 224.74 580.55 224.54 580.45 224.24ZM21.45 223.28L20.85 223.08C20.65 223.67 20.44 224.37 20.34 224.97L21.34 225.18C21.44 224.68 21.54 224.28 21.74 223.78C21.75 223.58 21.85 223.48 21.85 223.28L21.45 223.28ZM581.53 228.15C581.43 227.75 581.33 227.34 581.24 226.94L580.33 227.14L580.33 227.14C580.53 227.84 580.63 228.44 580.83 229.04L581.83 228.85C581.63 228.65 581.53 228.35 581.53 228.15ZM20.43 227.17L19.83 226.97C19.63 227.57 19.52 228.27 19.32 228.87L20.32 229.07C20.42 228.57 20.52 228.17 20.72 227.67C20.73 227.47 20.83 227.37 20.83 227.17L20.43 227.17ZM582.51 232.05C582.41 231.65 582.31 231.25 582.22 230.85L581.31 231.04L581.21 231.04C581.41 231.64 581.51 232.34 581.71 232.95L582.71 232.75C582.61 232.55 582.51 232.25 582.51 232.05ZM19.51 231.07L18.91 230.96C18.7 231.56 18.6 232.26 18.4 232.86L19.4 233.07C19.5 232.57 19.6 232.17 19.7 231.67C19.71 231.47 19.81 231.27 19.81 231.17L19.51 231.07ZM583.39 235.95C583.29 235.55 583.19 235.15 583.1 234.75L582.19 234.95L582.19 234.95C582.29 235.65 582.49 236.25 582.59 236.85L583.59 236.65C583.49 236.45 583.39 236.15 583.39 235.95ZM18.59 234.96L17.99 234.86C17.78 235.56 17.68 236.16 17.58 236.85L18.58 237.06C18.68 236.56 18.78 236.16 18.88 235.66C18.88 235.46 18.99 235.26 18.99 235.06L18.59 234.96ZM584.27 239.86C584.17 239.46 584.07 239.06 583.98 238.66L583.07 238.85L582.97 238.85C583.07 239.45 583.27 240.15 583.36 240.85L584.37 240.66C584.37 240.36 584.27 240.06 584.27 239.86ZM17.67 238.85L17.07 238.75C16.96 239.45 16.76 240.05 16.66 240.75L17.66 240.95C17.76 240.45 17.86 240.06 17.96 239.56C17.96 239.36 18.07 239.16 18.07 238.96L17.67 238.85ZM585.05 243.76C584.95 243.36 584.85 242.96 584.86 242.56L583.95 242.75L583.85 242.75C583.95 243.45 584.15 244.06 584.24 244.76L585.25 244.56C585.15 244.26 585.05 244.06 585.05 243.76ZM16.85 242.75L16.25 242.65C16.14 243.35 15.94 243.94 15.84 244.64L16.84 244.85C16.94 244.35 17.04 243.95 17.14 243.45C17.14 243.25 17.25 243.05 17.25 242.85L16.85 242.75ZM585.83 247.76C585.73 247.36 585.63 246.96 585.64 246.56L584.73 246.76L584.63 246.76C584.73 247.36 584.83 248.06 585.02 248.76L586.03 248.56C585.93 248.16 585.83 247.96 585.83 247.76ZM16.13 246.64L15.53 246.54C15.42 247.24 15.32 247.84 15.12 248.54L16.12 248.74C16.22 248.25 16.32 247.85 16.32 247.35C16.32 247.15 16.43 246.95 16.43 246.75L16.13 246.64ZM586.51 251.67C586.41 251.26 586.31 250.86 586.32 250.46L585.41 250.66L585.31 250.66C585.41 251.26 585.51 251.96 585.6 252.66L586.61 252.47C586.61 252.17 586.51 251.87 586.51 251.67ZM15.41 250.64L14.81 250.54C14.7 251.24 14.6 251.84 14.5 252.54L15.5 252.64C15.6 252.24 15.6 251.74 15.7 251.34C15.7 251.14 15.81 250.94 15.81 250.74L15.41 250.64ZM587.09 255.57C586.99 255.17 586.99 254.77 586.9 254.27L586 254.36L585.9 254.36C585.99 255.06 586.09 255.66 586.19 256.36L587.19 256.27C587.19 256.07 587.19 255.87 587.09 255.57ZM14.69 254.54L14.09 254.43C13.98 255.13 13.88 255.73 13.78 256.43L14.78 256.54C14.88 256.04 14.88 255.64 14.98 255.24C14.98 255.04 15.09 254.84 15.09 254.64L14.69 254.54ZM587.67 259.57C587.57 259.17 587.57 258.77 587.48 258.27L586.57 258.36L586.47 258.36C586.57 258.96 586.67 259.66 586.76 260.36L587.77 260.27C587.77 260.07 587.77 259.77 587.67 259.57ZM14.17 258.53L13.57 258.43C13.46 259.13 13.36 259.73 13.26 260.43L14.26 260.53C14.36 260.03 14.36 259.63 14.46 259.23C14.46 259.03 14.56 258.83 14.57 258.63L14.17 258.53ZM588.25 263.57C588.15 263.17 588.15 262.77 588.05 262.27L587.15 262.37L587.05 262.37C587.15 263.07 587.25 263.67 587.34 264.37L588.34 264.27C588.25 264.07 588.25 263.77 588.25 263.57ZM13.55 262.43L12.95 262.32C12.84 263.02 12.74 263.62 12.74 264.32L13.74 264.43C13.74 264.03 13.84 263.53 13.94 263.13C13.94 262.93 14.05 262.73 14.05 262.43L13.55 262.43ZM588.73 267.57C588.73 267.17 588.63 266.67 588.53 266.27L587.63 266.37L587.53 266.37C587.63 267.07 587.73 267.67 587.72 268.37L588.72 268.27C588.73 267.97 588.73 267.77 588.73 267.57ZM13.13 266.42L12.53 266.32C12.42 267.02 12.42 267.62 12.32 268.32L13.32 268.42C13.32 268.03 13.42 267.53 13.52 267.13C13.52 266.93 13.53 266.63 13.63 266.43L13.13 266.42ZM589.11 271.47C589.01 271.07 589.01 270.67 589.01 270.17L588.11 270.27L588.01 270.27C588.11 270.97 588.11 271.57 588.2 272.27L589.2 272.17C589.21 271.97 589.11 271.77 589.11 271.47ZM12.61 270.42L12.01 270.32C11.9 271.02 11.9 271.62 11.8 272.32L12.8 272.42C12.8 272.02 12.9 271.52 12.9 271.12C12.9 270.92 12.9 270.72 13.01 270.42L12.61 270.42ZM589.49 275.47C589.49 275.07 589.39 274.57 589.39 274.17L588.49 274.27L588.39 274.27C588.49 274.97 588.49 275.57 588.58 276.27L589.58 276.17C589.48 275.97 589.49 275.77 589.49 275.47ZM12.29 274.42L11.69 274.42C11.68 275.11 11.58 275.71 11.47 276.41L12.47 276.52C12.48 276.12 12.58 275.62 12.58 275.22C12.58 275.02 12.58 274.72 12.68 274.52L12.29 274.42ZM589.77 279.47C589.77 279.07 589.67 278.57 589.67 278.17L588.77 278.27L588.67 278.27C588.77 278.97 588.77 279.57 588.86 280.27L589.86 280.18C589.86 279.98 589.77 279.77 589.77 279.47ZM11.97 278.32L11.37 278.31C11.26 279.01 11.26 279.61 11.25 280.31L12.25 280.42C12.26 280.02 12.36 279.62 12.36 279.12C12.36 278.92 12.36 278.62 12.36 278.42L11.97 278.32ZM590.05 283.48C590.05 283.08 590.05 282.58 589.95 282.18L589.05 282.27L588.95 282.27C588.95 282.97 589.05 283.57 589.04 284.27L590.04 284.17C590.04 283.98 590.04 283.78 590.05 283.48ZM11.64 282.31L11.04 282.31C11.04 283.01 10.94 283.61 10.93 284.31L11.93 284.31C11.94 283.91 11.94 283.41 12.04 283.01C12.04 282.81 12.04 282.51 12.04 282.31L11.64 282.31ZM590.23 287.48C590.23 287.08 590.23 286.58 590.13 286.17L589.23 286.17L589.13 286.17C589.13 286.87 589.23 287.47 589.22 288.17L590.22 288.17C590.22 287.97 590.22 287.77 590.23 287.48ZM11.88 315.11C11.88 314.81 11.88 314.61 11.88 314.31L11.48 314.3L10.88 314.3C10.88 315 10.97 315.6 10.97 316.3L11.97 316.21C11.97 315.91 11.87 315.51 11.88 315.11ZM588.97 317.56C588.97 318.26 588.86 318.86 588.86 319.56L588.96 319.56L589.86 319.66C589.86 319.07 589.97 318.47 589.97 317.97C589.97 317.87 589.97 317.77 589.97 317.67L588.97 317.56ZM12.16 319.11C12.16 318.81 12.16 318.51 12.06 318.31L11.66 318.3L11.06 318.3C11.16 319 11.15 319.6 11.15 320.3L12.15 320.21C12.15 319.81 12.15 319.51 12.16 319.11ZM588.75 321.56C588.75 322.26 588.64 322.86 588.64 323.56L588.84 323.56L589.64 323.66C589.64 323.06 589.75 322.56 589.75 321.96C589.75 321.86 589.75 321.76 589.75 321.66L588.75 321.56ZM12.44 323.11C12.44 322.81 12.34 322.61 12.34 322.31L11.94 322.3L11.34 322.3C11.34 323 11.43 323.6 11.53 324.3L12.53 324.21C12.43 323.81 12.43 323.51 12.44 323.11ZM588.43 325.56C588.43 326.26 588.32 326.86 588.22 327.55L588.42 327.56L589.22 327.66C589.32 327.06 589.33 326.56 589.43 325.96C589.43 325.86 589.43 325.76 589.43 325.66L588.43 325.56ZM12.72 327.11C12.72 326.81 12.72 326.51 12.62 326.31L12.22 326.3L11.62 326.3C11.72 327 11.71 327.6 11.81 328.3L12.81 328.21C12.81 327.81 12.81 327.41 12.72 327.11ZM588.01 329.45C587.91 330.15 587.9 330.75 587.8 331.45L588 331.45L588.8 331.56C588.9 330.96 588.91 330.46 589.01 329.86C589.01 329.76 589.01 329.66 589.01 329.56L588.01 329.45ZM13.2 331.01C13.2 330.71 13.1 330.41 13.1 330.21L12.7 330.21L12.1 330.3C12.2 331 12.19 331.6 12.29 332.3L13.29 332.21C13.19 331.81 13.19 331.41 13.2 331.01ZM587.59 333.45C587.49 334.15 587.38 334.75 587.38 335.45L587.58 335.45L588.38 335.55C588.48 334.95 588.49 334.45 588.59 333.85C588.59 333.75 588.59 333.65 588.59 333.55L587.59 333.45ZM13.57 335.01C13.58 334.71 13.48 334.41 13.48 334.11L13.08 334.21L12.48 334.3C12.57 335 12.67 335.6 12.67 336.3L13.67 336.21C13.67 335.81 13.67 335.41 13.57 335.01ZM587.17 337.45C587.07 338.15 586.96 338.75 586.96 339.45L587.16 339.45L587.96 339.55C588.06 338.95 588.06 338.45 588.17 337.85C588.17 337.75 588.17 337.65 588.17 337.55L587.17 337.45ZM14.15 339.01C14.16 338.71 14.06 338.41 14.06 338.11L13.66 338.21L13.16 338.31C13.25 339.01 13.35 339.61 13.45 340.31L14.45 340.21C14.25 339.71 14.15 339.31 14.15 339.01ZM586.55 341.34C586.45 342.04 586.34 342.64 586.24 343.34L586.44 343.34L587.24 343.45C587.34 342.85 587.44 342.35 587.45 341.75C587.45 341.65 587.45 341.55 587.45 341.45L586.55 341.34ZM14.63 342.91C14.64 342.61 14.54 342.31 14.54 342.01L14.04 342.11L13.54 342.21C13.63 342.91 13.73 343.51 13.83 344.21L14.83 344.01C14.73 343.71 14.73 343.31 14.63 342.91ZM586.03 345.34C585.93 346.04 585.82 346.64 585.72 347.34L585.92 347.34L586.72 347.44C586.82 346.84 586.92 346.34 587.03 345.74C587.03 345.64 587.03 345.54 587.03 345.44L586.03 345.34ZM15.31 346.92C15.32 346.62 15.22 346.31 15.12 346.01L14.62 346.11L14.12 346.21C14.21 346.91 14.31 347.51 14.41 348.21L15.41 348.02L15.31 346.92ZM585.31 349.23C585.21 349.83 585.1 350.53 585 351.23L585.2 351.23L586 351.34C586.1 350.74 586.2 350.24 586.31 349.64C586.31 349.54 586.31 349.44 586.31 349.34L585.31 349.23ZM15.99 350.82C15.9 350.52 15.9 350.22 15.8 349.92L15.3 350.01L14.8 350.11C14.89 350.81 14.99 351.41 15.19 352.11L16.19 351.92C16.09 351.52 15.99 351.22 15.99 350.82ZM584.69 353.23C584.59 353.93 584.48 354.53 584.28 355.23L584.48 355.23L585.28 355.43C585.38 354.83 585.48 354.33 585.59 353.73C585.59 353.63 585.59 353.53 585.59 353.43L584.69 353.23ZM16.67 354.82C16.57 354.52 16.58 354.22 16.48 353.92L15.98 354.02L15.48 354.11C15.57 354.81 15.67 355.41 15.87 356.12L16.87 355.92C16.77 355.52 16.77 355.12 16.67 354.82ZM583.87 357.12C583.77 357.82 583.56 358.42 583.46 359.12L583.66 359.12L584.46 359.33C584.56 358.83 584.66 358.23 584.77 357.63C584.77 357.53 584.77 357.43 584.87 357.33L583.87 357.12ZM17.45 358.72C17.35 358.42 17.36 358.12 17.26 357.82L16.76 357.92L16.26 358.02C16.35 358.72 16.55 359.32 16.65 360.02L17.65 359.82C17.65 359.42 17.55 359.02 17.45 358.72ZM583.05 361.02C582.95 361.72 582.74 362.32 582.64 363.02L582.84 363.02L583.64 363.22C583.74 362.62 583.84 362.12 583.95 361.52C583.95 361.42 583.95 361.32 584.05 361.22L583.05 361.02ZM18.33 362.63C18.23 362.33 18.24 362.03 18.14 361.73L17.64 361.82L17.14 361.92C17.23 362.62 17.43 363.22 17.53 363.92L18.53 363.73C18.43 363.33 18.33 363.03 18.33 362.63ZM582.23 364.91C582.03 365.51 581.92 366.21 581.82 366.91L582.02 366.91L582.82 367.12C582.92 366.52 583.12 366.02 583.23 365.42C583.23 365.32 583.23 365.22 583.33 365.12L582.23 364.91ZM19.21 366.53C19.11 366.23 19.02 365.93 19.02 365.63L18.52 365.73L18.02 365.82C18.11 366.52 18.31 367.13 18.51 367.83L19.51 367.63C19.31 367.23 19.31 366.83 19.21 366.53ZM581.31 368.81C581.11 369.41 581 370.11 580.8 370.71L581 370.71L581.8 370.91C581.9 370.31 582.1 369.81 582.21 369.21C582.21 369.11 582.21 369.01 582.31 368.91L581.31 368.81ZM20.09 370.43C19.99 370.13 19.9 369.83 19.9 369.53L19.4 369.63L18.9 369.73C19.09 370.33 19.19 371.03 19.39 371.73L20.39 371.43C20.29 371.13 20.19 370.73 20.09 370.43ZM580.29 372.7C580.09 373.3 579.98 374 579.78 374.6L579.98 374.6L580.78 374.8C580.88 374.31 581.08 373.71 581.19 373.11C581.19 373.01 581.19 372.91 581.29 372.81L580.29 372.7ZM21.17 374.34C21.07 374.04 20.98 373.74 20.98 373.34L20.48 373.43L19.98 373.53C20.17 374.13 20.27 374.83 20.47 375.43L21.47 375.14C21.27 374.94 21.17 374.64 21.17 374.34ZM579.27 376.5C579.07 377.1 578.96 377.79 578.76 378.39L578.96 378.39L579.76 378.6C579.96 378.1 580.06 377.5 580.27 377C580.27 376.9 580.27 376.8 580.37 376.7L579.27 376.5ZM22.15 378.14C22.06 377.84 21.96 377.54 21.86 377.14L21.36 377.24L20.86 377.34C21.05 377.94 21.25 378.64 21.35 379.24L22.35 378.94C22.35 378.84 22.25 378.44 22.15 378.14ZM578.25 380.39C578.05 380.99 577.84 381.69 577.74 382.29L577.94 382.39L578.74 382.59C578.94 382.09 579.04 381.49 579.25 380.99C579.25 380.89 579.25 380.79 579.35 380.7L578.25 380.39ZM23.33 382.05C23.24 381.75 23.14 381.45 23.04 381.05L22.54 381.14L22.04 381.24C22.23 381.84 22.43 382.54 22.63 383.14L23.63 382.85C23.43 382.65 23.33 382.35 23.33 382.05ZM577.13 384.18C576.93 384.78 576.72 385.48 576.52 386.08L576.72 386.18L577.52 386.38C577.72 385.89 577.82 385.29 578.03 384.79C578.03 384.69 578.13 384.59 578.13 384.49L577.13 384.18ZM24.41 385.85C24.32 385.55 24.22 385.25 24.12 384.85L23.62 384.95L23.12 385.15C23.31 385.75 23.51 386.45 23.71 387.05L24.71 386.75C24.61 386.45 24.51 386.15 24.41 385.85ZM575.91 387.98C575.71 388.57 575.5 389.27 575.3 389.87L575.5 389.97L576.3 390.18C576.5 389.68 576.71 389.08 576.81 388.58C576.81 388.48 576.91 388.38 576.91 388.28L575.91 387.98ZM25.69 389.66C25.6 389.36 25.5 389.06 25.4 388.66L24.9 388.85L24.4 389.05C24.59 389.65 24.79 390.35 24.99 390.95L25.89 390.66C25.89 390.26 25.79 389.96 25.69 389.66ZM574.69 391.87C574.49 392.47 574.28 393.17 574.08 393.77L574.28 393.87L575.08 394.17C575.28 393.67 575.48 393.07 575.69 392.57C575.69 392.47 575.79 392.37 575.79 392.27L574.69 391.87ZM26.98 393.46C26.88 393.16 26.78 392.76 26.68 392.46L26.18 392.66L25.68 392.86C25.88 393.46 26.07 394.16 26.37 394.76L27.37 394.46C27.17 394.06 27.07 393.76 26.98 393.46ZM573.37 395.66C573.17 396.26 572.96 396.96 572.66 397.56L572.86 397.66L573.66 397.96C573.86 397.46 574.07 396.86 574.27 396.37C574.27 396.27 574.37 396.17 574.37 396.07L573.37 395.66ZM28.26 397.17C28.16 396.87 28.06 396.57 27.96 396.17L27.46 396.36L26.96 396.56C27.16 397.16 27.45 397.76 27.65 398.47L28.55 398.17C28.45 397.87 28.35 397.57 28.26 397.17ZM571.95 399.35C571.75 399.95 571.45 400.55 571.24 401.25L571.44 401.35L572.24 401.65C572.44 401.15 572.65 400.56 572.85 400.06C572.85 399.96 572.95 399.86 572.95 399.76L571.95 399.35ZM29.64 400.97C29.54 400.67 29.44 400.37 29.24 399.97L28.74 400.17L28.34 400.37C28.54 400.97 28.83 401.57 29.03 402.27L29.93 401.88C29.83 401.58 29.74 401.28 29.64 400.97ZM570.63 403.15C570.43 403.74 570.13 404.34 569.92 405.04L570.12 405.14L570.82 405.45C571.02 404.95 571.23 404.35 571.43 403.85C571.43 403.75 571.53 403.65 571.53 403.55L570.63 403.15ZM31.02 404.68C30.92 404.38 30.72 403.98 30.62 403.68L30.12 403.88L29.72 404.07C29.92 404.68 30.21 405.28 30.41 405.98L31.31 405.58C31.31 405.28 31.12 404.98 31.02 404.68ZM569.11 406.94C568.91 407.54 568.61 408.13 568.4 408.83L568.6 408.93L569.3 409.24C569.5 408.74 569.71 408.24 569.91 407.64C569.91 407.54 570.01 407.44 570.01 407.34L569.11 406.94ZM32.5 408.39C32.4 408.09 32.2 407.69 32.1 407.39L31.6 407.58L31.2 407.78C31.4 408.38 31.7 408.98 31.99 409.58L32.89 409.19C32.8 408.99 32.6 408.69 32.5 408.39ZM567.59 410.63C567.39 411.23 567.09 411.82 566.78 412.52L566.98 412.62L567.68 412.93C567.89 412.43 568.09 411.93 568.29 411.33C568.29 411.23 568.39 411.13 568.39 411.03L567.59 410.63ZM34.08 412.09C33.98 411.79 33.78 411.49 33.69 411.09L33.18 411.29L32.78 411.49C33.08 412.09 33.28 412.69 33.57 413.29L34.48 412.9C34.28 412.7 34.18 412.4 34.08 412.09ZM566.08 414.32C565.77 414.92 565.57 415.52 565.27 416.11L565.47 416.22L566.16 416.52C566.37 416.02 566.67 415.52 566.87 414.92C566.87 414.82 566.97 414.72 566.97 414.62L566.08 414.32ZM35.66 415.8C35.46 415.5 35.36 415.1 35.27 414.8L34.77 415L34.36 415.2C34.66 415.8 34.86 416.4 35.15 417L36.06 416.6C35.86 416.3 35.76 416.1 35.66 415.8ZM564.46 417.91C564.15 418.51 563.95 419.11 563.65 419.71L563.85 419.81L564.55 420.11C564.75 419.61 565.05 419.11 565.25 418.61C565.25 418.51 565.35 418.41 565.36 418.31L564.46 417.91ZM37.24 419.41C37.04 419.11 36.95 418.71 36.75 418.41L36.25 418.6L35.85 418.8C36.14 419.4 36.44 420 36.64 420.61L37.54 420.21C37.44 420.01 37.34 419.71 37.24 419.41ZM562.84 421.6C562.54 422.2 562.23 422.8 562.03 423.4L562.23 423.5L562.93 423.8C563.13 423.3 563.43 422.8 563.63 422.3C563.64 422.2 563.74 422.1 563.74 422.01L562.84 421.6ZM38.92 423.02C38.73 422.72 38.63 422.32 38.43 422.01L37.93 422.21L37.53 422.41C37.82 423.01 38.12 423.61 38.42 424.21L39.32 423.82C39.12 423.62 39.02 423.32 38.92 423.02ZM561.12 425.19C560.82 425.79 560.51 426.39 560.21 426.99L560.41 427.09L561.11 427.39C561.31 426.89 561.61 426.39 561.82 425.89C561.82 425.79 561.92 425.69 561.92 425.59L561.12 425.19ZM40.61 426.62C40.41 426.32 40.31 425.92 40.11 425.62L39.61 425.82L39.21 426.02C39.51 426.62 39.8 427.22 40.1 427.82L41 427.33C40.9 427.13 40.8 426.93 40.61 426.62ZM559.3 428.78C559 429.38 558.7 429.98 558.39 430.58L558.59 430.68L559.29 431.08C559.59 430.58 559.79 430.08 560.1 429.58C560.2 429.48 560.2 429.39 560.2 429.29L559.3 428.78ZM42.39 430.23C42.19 429.93 42.09 429.53 41.89 429.23L41.39 429.43L40.99 429.63C41.29 430.23 41.58 430.83 41.88 431.43L42.78 430.93C42.68 430.73 42.49 430.43 42.39 430.23ZM557.48 432.37C557.18 432.97 556.88 433.57 556.57 434.17L556.77 434.27L557.47 434.67C557.67 434.17 557.98 433.67 558.28 433.17C558.28 433.07 558.38 432.97 558.38 432.87L557.48 432.37ZM44.27 433.74C44.07 433.44 43.87 433.04 43.77 432.74L43.27 433.04L42.87 433.23C43.17 433.84 43.47 434.44 43.76 435.04L44.67 434.54C44.47 434.24 44.37 434.04 44.27 433.74ZM555.66 435.96C555.36 436.56 555.06 437.16 554.76 437.75L554.95 437.86L555.65 438.26C555.96 437.76 556.16 437.26 556.46 436.76C556.46 436.66 556.56 436.56 556.56 436.46L555.66 435.96ZM46.05 437.25C45.85 436.95 45.65 436.55 45.56 436.25L45.05 436.54L44.65 436.74C44.95 437.34 45.25 437.95 45.64 438.55L46.55 438.05C46.35 437.75 46.25 437.55 46.05 437.25ZM553.75 439.45C553.44 440.05 553.14 440.65 552.74 441.24L552.94 441.34L553.63 441.75C553.94 441.25 554.24 440.75 554.44 440.25C554.54 440.15 554.54 440.05 554.64 439.95L553.75 439.45ZM48.03 440.76C47.83 440.46 47.64 440.06 47.44 439.76L46.94 440.05L46.54 440.25C46.83 440.85 47.23 441.45 47.53 441.96L48.43 441.46C48.33 441.26 48.13 441.06 48.03 440.76ZM551.83 442.94C551.53 443.54 551.12 444.13 550.82 444.63L551.02 444.73L551.72 445.14C552.02 444.64 552.32 444.14 552.53 443.64C552.63 443.54 552.63 443.44 552.73 443.34L551.83 442.94ZM50.02 444.27C49.82 443.97 49.62 443.57 49.42 443.27L48.92 443.56L48.52 443.76C48.81 444.36 49.21 444.86 49.51 445.47L50.41 444.97C50.31 444.67 50.11 444.47 50.02 444.27ZM549.81 446.43C549.51 447.03 549.1 447.62 548.8 448.12L549 448.22L549.7 448.63C550 448.13 550.3 447.63 550.61 447.13C550.61 447.03 550.71 446.93 550.81 446.83L549.81 446.43ZM52 447.68C51.8 447.38 51.6 446.98 51.4 446.67L50.9 446.97L50.6 447.17C50.9 447.77 51.29 448.27 51.59 448.87L52.39 448.38C52.3 448.18 52.2 447.98 52 447.68ZM547.69 449.82C547.39 450.41 546.99 450.91 546.68 451.51L546.88 451.61L547.58 452.01C547.88 451.52 548.19 451.02 548.49 450.52C548.49 450.42 548.59 450.32 548.69 450.22L547.69 449.82ZM54.08 451.09C53.88 450.79 53.68 450.39 53.49 450.08L52.98 450.38L52.68 450.58C53.08 451.18 53.38 451.68 53.67 452.28L54.58 451.79C54.38 451.59 54.18 451.29 54.08 451.09ZM545.68 453.2C545.37 453.8 544.97 454.3 544.57 454.9L544.77 455L545.46 455.4C545.77 454.9 546.07 454.41 546.37 454.01C546.47 453.91 546.47 453.81 546.57 453.71L545.68 453.2ZM56.06 454.3L56.06 454.3C55.87 454 55.77 453.8 55.57 453.49L55.07 453.79L54.77 453.99C55.16 454.59 55.46 455.09 55.86 455.7L56.66 455.2L56.06 454.3ZM543.46 456.59C543.06 457.19 542.75 457.69 542.35 458.29L542.55 458.39L543.15 458.79C543.45 458.29 543.75 457.79 544.05 457.4C544.06 457.3 544.16 457.2 544.26 457.1L543.46 456.59ZM57.65 456.8L56.85 457.3C57.25 457.8 57.54 458.4 57.94 459L58.74 458.41C58.45 458.01 58.05 457.41 57.65 456.8ZM541.34 459.98C540.94 460.58 540.64 461.08 540.23 461.67L540.43 461.78L541.03 462.18C541.33 461.68 541.63 461.28 541.94 460.78C542.04 460.68 542.04 460.58 542.14 460.48L541.34 459.98ZM59.83 460.21L59.03 460.81C59.43 461.41 59.83 461.91 60.12 462.52L60.93 461.92C60.63 461.32 60.23 460.72 59.83 460.21ZM539.02 463.27C538.62 463.87 538.22 464.36 537.92 464.96L538.12 465.06L538.71 465.47C539.02 464.97 539.32 464.57 539.72 464.07C539.82 463.97 539.82 463.87 539.92 463.87L539.02 463.27ZM62.12 463.53L61.31 464.12C61.71 464.62 62.11 465.22 62.51 465.73L63.31 465.13C62.91 464.53 62.51 464.03 62.12 463.53ZM536.81 466.56C536.41 467.05 536 467.65 535.7 468.15L535.9 468.25L536.5 468.65C536.8 468.26 537.2 467.76 537.5 467.26C537.6 467.16 537.61 467.06 537.71 466.96L536.81 466.56ZM64.4 466.74L63.6 467.33C63.99 467.83 64.39 468.44 64.79 468.94L65.59 468.34C65.19 467.84 64.8 467.34 64.4 466.74ZM534.49 469.74C534.09 470.24 533.69 470.84 533.28 471.34L533.48 471.44L534.08 471.94C534.38 471.44 534.78 471.04 535.09 470.55C535.19 470.45 535.19 470.35 535.29 470.35L534.49 469.74ZM66.68 469.95L65.88 470.54C66.28 471.04 66.68 471.65 67.07 472.15L67.88 471.55C67.48 471.05 67.08 470.55 66.68 469.95ZM532.07 473.03C531.67 473.53 531.27 474.13 530.87 474.62L531.07 474.72L531.66 475.23C531.97 474.73 532.37 474.33 532.67 473.83C532.77 473.73 532.77 473.63 532.87 473.63L532.07 473.03ZM69.07 473.16L68.26 473.75C68.66 474.26 69.06 474.86 69.46 475.36L70.26 474.76C69.86 474.26 69.46 473.76 69.07 473.16ZM529.66 476.22C529.26 476.71 528.85 477.31 528.45 477.81L528.65 477.91L529.25 478.41C529.55 478.02 529.95 477.52 530.25 477.12C530.35 477.02 530.35 476.92 530.45 476.92L529.66 476.22ZM72.25 477.37C72.05 477.07 71.75 476.67 71.45 476.37L70.95 476.77L70.65 476.97C71.05 477.47 71.44 477.97 71.84 478.57L72.64 477.98C72.54 477.77 72.45 477.57 72.25 477.37ZM527.24 479.3C526.84 479.8 526.44 480.3 526.03 480.9L526.23 481L526.83 481.5C527.23 481.1 527.54 480.6 527.94 480.21C528.04 480.11 528.04 480.01 528.14 480.01L527.24 479.3ZM74.73 480.49C74.63 480.38 74.53 480.28 74.53 480.18C74.33 479.98 74.13 479.68 74.04 479.48L73.53 479.88L73.23 480.08C73.63 480.58 74.03 481.08 74.52 481.68L75.33 481.09L75.33 481.09C75.03 480.89 74.93 480.69 74.73 480.49ZM524.73 482.49C524.32 482.99 523.92 483.49 523.42 483.98L523.62 484.08L524.22 484.59C524.52 484.19 524.92 483.69 525.32 483.29C525.42 483.19 525.42 483.09 525.52 483.09L524.73 482.49ZM77.21 483.6C77.11 483.5 77.02 483.4 77.02 483.3C76.82 483.1 76.62 482.79 76.42 482.59L75.92 482.99L75.62 483.19C76.01 483.69 76.51 484.19 76.91 484.7L77.61 484.1L77.71 484C77.51 484 77.41 483.8 77.21 483.6ZM522.21 485.58C521.81 486.07 521.4 486.57 520.9 487.07L521.1 487.27L521.7 487.77C522.1 487.38 522.4 486.88 522.81 486.48C522.91 486.38 522.91 486.28 523.01 486.28L522.21 485.58ZM79.8 486.61C79.7 486.51 79.6 486.41 79.6 486.31C79.4 486.11 79.2 485.81 79 485.61L78.5 486L78.2 486.2C78.6 486.7 79.1 487.21 79.49 487.71L80.1 487.21L80.2 487.11C80.1 487.01 80 486.81 79.8 486.61ZM519.59 488.56C519.19 489.06 518.69 489.56 518.29 490.05L518.49 490.26L519.08 490.76C519.49 490.36 519.89 489.86 520.19 489.46C520.29 489.37 520.29 489.27 520.39 489.27L519.59 488.56ZM82.38 489.72C82.28 489.62 82.18 489.52 82.18 489.42C81.99 489.22 81.79 488.92 81.59 488.72L81.09 489.12L80.88 489.31C81.28 489.82 81.78 490.32 82.18 490.82L82.78 490.32L82.98 490.13C82.68 490.02 82.58 489.82 82.38 489.72ZM516.98 491.55L515.67 493.04L515.87 493.24L516.47 493.74C516.87 493.35 517.27 492.85 517.57 492.45C517.68 492.35 517.68 492.25 517.78 492.25L516.98 491.55ZM85.07 492.64C84.97 492.53 84.87 492.43 84.87 492.33C84.67 492.13 84.47 491.83 84.27 491.63L83.77 492.03L83.57 492.23C84.07 492.73 84.46 493.23 84.86 493.73L85.36 493.34L85.57 493.14C85.37 493.04 85.17 492.84 85.07 492.64ZM514.26 494.53C513.86 495.03 513.36 495.53 512.96 496.03L513.16 496.23L513.75 496.73C514.15 496.33 514.56 495.93 514.86 495.54C514.96 495.44 515.06 495.34 515.06 495.34L514.26 494.53ZM107.65 515.25C107.55 515.14 107.45 515.14 107.35 515.04C107.15 514.84 106.86 514.64 106.56 514.34L106.05 514.84L105.85 515.04C106.05 515.24 106.35 515.44 106.55 515.64C106.55 515.64 106.55 515.64 106.65 515.74C106.85 515.94 107.15 516.14 107.35 516.34L107.95 515.65L107.95 515.65C107.95 515.55 107.85 515.45 107.65 515.25ZM491.55 516.91C491.05 517.31 490.54 517.81 490.04 518.2L490.14 518.4L490.64 519.01C491.04 518.61 491.44 518.31 491.94 517.91C492.04 517.81 492.14 517.81 492.14 517.71L491.55 516.91ZM110.64 517.96C110.34 517.66 109.94 517.36 109.64 517.05L109.14 517.65L108.94 517.75C109.14 517.95 109.44 518.15 109.74 518.45C110.04 518.66 110.23 518.86 110.53 519.16L111.14 518.46L111.24 518.36C110.94 518.26 110.84 518.06 110.64 517.96ZM488.54 519.49C488.03 519.89 487.53 520.39 487.03 520.79L487.13 520.99L487.62 521.59C488.03 521.19 488.43 520.89 488.93 520.5C489.03 520.4 489.13 520.4 489.13 520.3L488.54 519.49ZM113.73 520.57C113.43 520.27 113.03 519.97 112.73 519.67L112.23 520.27L112.03 520.47C112.22 520.67 112.52 520.87 112.82 521.07C113.12 521.27 113.32 521.47 113.62 521.77L114.12 521.18L114.22 520.98C114.02 520.78 113.82 520.68 113.73 520.57ZM485.52 522.08C485.02 522.48 484.52 522.87 484.02 523.37L484.11 523.57L484.61 524.17C485.01 523.78 485.52 523.48 485.92 523.08C486.02 522.98 486.12 522.98 486.12 522.88L485.52 522.08ZM116.71 523.09C116.31 522.79 116.02 522.49 115.62 522.18L115.11 522.78L114.91 522.98C115.11 523.18 115.41 523.38 115.71 523.58C116.01 523.79 116.21 523.99 116.51 524.19L117.01 523.59L117.21 523.39C117.11 523.39 116.91 523.29 116.71 523.09ZM482.41 524.66C481.91 525.06 481.41 525.46 480.9 525.95L481 526.15L481.5 526.76C481.9 526.36 482.4 526.06 482.8 525.66C482.9 525.56 483 525.57 483.01 525.47L482.41 524.66ZM119.9 525.61C119.5 525.3 119.2 525 118.8 524.7L118.3 525.3L118.1 525.5C118.4 525.7 118.6 525.9 118.9 526.1C119.2 526.3 119.39 526.5 119.69 526.7L120.1 526.21L120.3 525.91C120.2 525.91 120 525.81 119.9 525.61ZM479.3 527.15C478.79 527.54 478.29 527.94 477.69 528.34L477.79 528.54L478.29 529.14C478.69 528.84 479.19 528.44 479.59 528.15C479.69 528.05 479.79 528.05 479.79 527.95L479.3 527.15ZM122.99 528.12C122.59 527.82 122.29 527.52 121.89 527.31L121.39 527.91L121.29 528.11C121.59 528.31 121.78 528.51 122.08 528.72C122.38 528.92 122.58 529.12 122.88 529.32L123.18 528.92L123.48 528.52C123.29 528.42 123.19 528.22 122.99 528.12ZM476.18 529.63L474.58 530.82L474.68 531.02L475.17 531.62C475.57 531.33 476.08 530.93 476.48 530.63C476.58 530.53 476.68 530.53 476.78 530.43L476.18 529.63ZM126.17 530.54C125.78 530.23 125.48 530.03 125.08 529.73L124.58 530.33L124.47 530.53C124.77 530.73 124.97 530.93 125.27 531.13C125.57 531.33 125.77 531.53 126.07 531.74L126.37 531.34L126.67 530.94C126.47 530.84 126.37 530.64 126.17 530.54ZM472.97 532.01C472.47 532.41 471.87 532.81 471.37 533.2L471.46 533.4L471.96 534.01C472.46 533.71 472.86 533.31 473.27 533.01C473.37 532.91 473.47 532.91 473.47 532.81L472.97 532.01ZM129.36 532.95C128.96 532.65 128.56 532.45 128.27 532.15L127.76 532.74L127.66 532.94C127.96 533.14 128.16 533.35 128.46 533.55C128.76 533.75 128.96 533.95 129.26 534.15L129.46 533.85L129.76 533.35C129.66 533.15 129.56 533.05 129.36 532.95ZM469.76 534.39C469.26 534.79 468.66 535.19 468.15 535.59L468.25 535.79L468.75 536.39C469.15 536.09 469.65 535.79 470.15 535.4C470.25 535.3 470.35 535.3 470.46 535.2L469.76 534.39ZM132.65 535.27C132.25 534.97 131.85 534.76 131.55 534.46L131.05 535.06L130.95 535.26C131.25 535.46 131.45 535.66 131.75 535.86C132.05 536.06 132.35 536.27 132.54 536.47L132.75 536.27L133.15 535.67C132.95 535.57 132.75 535.37 132.65 535.27ZM466.45 536.68C465.95 537.07 465.34 537.47 464.84 537.77L464.94 537.97L465.44 538.57C465.94 538.27 466.34 537.98 466.84 537.58C466.94 537.48 467.04 537.48 467.14 537.38L466.45 536.68ZM135.94 537.58C135.54 537.28 135.14 537.08 134.74 536.78L134.24 537.38L134.14 537.58C134.44 537.78 134.64 537.98 134.94 538.08C135.23 538.28 135.53 538.48 135.83 538.68L135.93 538.48L136.34 537.89C136.24 537.89 136.04 537.68 135.94 537.58ZM463.24 538.96C462.73 539.36 462.13 539.75 461.63 540.05L461.73 540.25L462.23 540.95C462.73 540.66 463.13 540.36 463.63 540.06C463.73 539.96 463.83 539.96 463.93 539.86L463.24 538.96ZM139.23 539.9C138.83 539.6 138.43 539.4 138.03 539.09L137.63 539.79L137.53 539.99C137.83 540.19 138.02 540.39 138.32 540.5C138.62 540.7 138.92 540.9 139.22 541.1L139.32 541L139.82 540.3C139.53 540.1 139.33 540 139.23 539.9ZM459.92 541.14C459.42 541.54 458.82 541.84 458.22 542.23L458.32 542.43L458.71 543.14C459.22 542.84 459.62 542.54 460.12 542.24C460.22 542.14 460.32 542.14 460.42 542.05L459.92 541.14ZM142.52 542.12C142.12 541.81 141.72 541.61 141.32 541.31L140.92 542.01L140.81 542.21C141.11 542.41 141.31 542.61 141.61 542.71C141.91 542.91 142.21 543.12 142.51 543.32L142.51 543.32L143.01 542.52C142.81 542.32 142.71 542.22 142.52 542.12ZM456.61 543.33C456.01 543.72 455.51 544.02 454.91 544.42L455.01 544.62L455.4 545.32C455.9 545.02 456.31 544.72 456.81 544.43C456.91 544.43 457.01 544.33 457.11 544.23L456.61 543.33ZM145.9 544.23C145.51 544.03 145.11 543.73 144.71 543.43L144.31 544.13L144.2 544.32C144.5 544.53 144.7 544.63 145 544.83L145.1 544.93C145.4 545.13 145.6 545.23 145.9 545.43L146.4 544.64C146.2 544.44 146.1 544.33 145.9 544.23ZM453.2 545.51C452.6 545.8 452.1 546.2 451.5 546.6L451.6 546.8L451.99 547.5C452.49 547.2 452.99 546.91 453.4 546.61C453.5 546.51 453.6 546.51 453.7 546.41L453.2 545.51ZM149.29 546.35C148.89 546.15 148.5 545.85 148.1 545.54L147.69 546.24L147.59 546.44C148.19 546.74 148.69 547.15 149.29 547.45L149.79 546.55C149.59 546.55 149.49 546.45 149.29 546.35ZM449.79 547.49C449.19 547.89 448.69 548.18 448.09 548.48L448.19 548.68L448.58 549.38C449.08 549.09 449.59 548.79 449.99 548.49C450.09 548.39 450.19 548.39 450.29 548.29L449.79 547.49ZM152.68 548.47C152.28 548.27 151.89 547.96 151.49 547.76L151.08 548.46L150.98 548.56C151.58 548.86 152.18 549.26 152.68 549.57L153.18 548.67C153.08 548.67 152.88 548.57 152.68 548.47ZM446.38 549.57C445.78 549.87 445.28 550.27 444.68 550.56L444.77 550.76L445.17 551.46C445.67 551.17 446.17 550.87 446.58 550.67C446.68 550.57 446.78 550.57 446.88 550.47L446.38 549.57ZM156.17 550.48C155.77 550.28 155.38 549.98 154.88 549.78L154.47 550.48L154.37 550.68C154.97 550.98 155.57 551.38 156.07 551.68L156.57 550.79C156.47 550.69 156.37 550.59 156.17 550.48ZM442.97 551.55C442.37 551.85 441.77 552.25 441.27 552.54L441.36 552.74L441.76 553.45C442.26 553.15 442.76 552.95 443.27 552.65C443.37 552.66 443.47 552.56 443.57 552.46L442.97 551.55ZM159.66 552.5C159.26 552.3 158.76 552 158.37 551.8L157.96 552.49L157.86 552.69C158.46 553 159.06 553.4 159.66 553.7L160.16 552.8C159.96 552.6 159.86 552.5 159.66 552.5ZM439.46 553.53C438.86 553.83 438.26 554.13 437.76 554.53L437.85 554.73L438.25 555.43C438.75 555.13 439.25 554.93 439.76 554.64C439.86 554.64 439.96 554.54 440.06 554.44L439.46 553.53ZM163.15 554.42C162.75 554.22 162.26 553.91 161.86 553.71L161.45 554.41L161.35 554.51C161.95 554.81 162.55 555.12 163.15 555.52L163.65 554.62C163.45 554.52 163.35 554.52 163.15 554.42ZM435.95 555.42C435.35 555.71 434.75 556.01 434.15 556.31L434.25 556.51L434.64 557.21C435.14 556.91 435.64 556.71 436.15 556.42C436.25 556.42 436.35 556.32 436.45 556.22L435.95 555.42ZM166.74 556.24C166.34 556.04 165.85 555.83 165.45 555.53L165.04 556.33L164.94 556.43C165.54 556.73 166.14 557.03 166.74 557.34L167.24 556.44C167.04 556.44 166.84 556.34 166.74 556.24ZM432.44 557.2C431.84 557.49 431.24 557.79 430.64 558.09L430.74 558.29L431.13 558.99C431.63 558.69 432.14 558.5 432.64 558.2C432.74 558.2 432.84 558.1 432.94 558L432.44 557.2ZM170.23 558.05C169.84 557.85 169.34 557.65 168.94 557.35L168.53 558.15L168.43 558.25C169.03 558.55 169.63 558.85 170.23 559.15L170.73 558.26C170.63 558.26 170.43 558.16 170.23 558.05ZM428.93 559.08C428.33 559.38 427.73 559.67 427.13 559.97L427.23 560.17L427.62 560.87C428.12 560.67 428.63 560.38 429.13 560.18C429.23 560.18 429.33 560.08 429.43 559.98L428.93 559.08ZM173.82 559.87C173.33 559.67 172.93 559.47 172.53 559.17L172.12 559.96L172.02 560.06C172.62 560.37 173.22 560.67 173.82 560.97L174.22 560.07C174.22 560.07 174.02 559.97 173.82 559.87ZM425.32 560.76C424.72 561.06 424.12 561.35 423.52 561.65L423.62 561.85L424.01 562.65C424.51 562.46 425.02 562.16 425.52 561.96C425.62 561.96 425.72 561.86 425.82 561.86L425.32 560.76ZM177.52 561.59C177.02 561.39 176.62 561.19 176.22 560.98L175.81 561.78L175.71 561.88C176.31 562.18 176.91 562.49 177.51 562.69L177.91 561.79C177.81 561.79 177.62 561.69 177.52 561.59ZM421.71 562.44C421.11 562.74 420.51 563.04 419.91 563.23L420.01 563.43L420.31 564.23C420.81 564.04 421.31 563.74 421.81 563.54C421.91 563.54 422.01 563.44 422.11 563.44L421.71 562.44ZM181.11 563.31C180.61 563.11 180.21 562.9 179.71 562.7L179.31 563.5L179.21 563.6C179.8 563.9 180.4 564.11 181 564.41L181.41 563.51C181.41 563.41 181.31 563.41 181.11 563.31ZM418.11 564.12C417.5 564.42 416.9 564.62 416.3 564.91L416.4 565.11L416.7 565.92C417.2 565.72 417.7 565.42 418.2 565.22C418.3 565.22 418.4 565.12 418.5 565.12L418.11 564.12ZM184.8 564.93C184.3 564.73 183.9 564.52 183.4 564.32L183 565.12L183 565.22C183.6 565.52 184.19 565.72 184.89 566.03L185.3 565.13C185.1 565.03 184.9 565.03 184.8 564.93ZM414.5 565.7C413.9 566 413.3 566.2 412.69 566.49L412.79 566.59L413.09 567.4C413.59 567.2 414.09 567 414.59 566.7C414.69 566.7 414.79 566.61 414.89 566.61L414.5 565.7ZM188.49 566.55C187.99 566.34 187.59 566.14 187.09 565.94L186.79 566.74L186.79 566.84C187.39 567.14 187.99 567.34 188.59 567.65L188.99 566.75C188.79 566.65 188.59 566.55 188.49 566.55ZM410.79 567.28C410.19 567.58 409.59 567.78 408.99 568.08L409.08 568.28L409.38 569.08C409.88 568.88 410.38 568.68 410.88 568.48C410.98 568.49 411.08 568.39 411.18 568.39L410.79 567.28ZM192.18 568.06C191.68 567.86 191.29 567.66 190.79 567.56L190.48 568.36L190.48 568.46C191.08 568.66 191.68 568.96 192.38 569.27L192.78 568.37C192.48 568.17 192.38 568.17 192.18 568.06ZM407.08 568.77C406.48 568.96 405.88 569.26 405.18 569.46L405.28 569.56L405.57 570.36C406.08 570.16 406.58 569.96 407.08 569.76C407.18 569.77 407.28 569.67 407.38 569.67L407.08 568.77ZM195.88 569.48C195.38 569.28 194.98 569.08 194.48 568.98L194.17 569.77L194.17 569.87C194.77 570.08 195.37 570.38 196.07 570.58L196.37 569.69C196.17 569.68 196.08 569.58 195.88 569.48ZM403.37 570.25C402.77 570.44 402.17 570.74 401.47 570.94L401.47 571.04L401.77 571.84C402.27 571.64 402.77 571.44 403.37 571.25C403.47 571.25 403.57 571.15 403.67 571.15L403.37 570.25ZM199.67 571C199.17 570.8 198.77 570.7 198.27 570.5L197.97 571.29L197.97 571.39C198.56 571.6 199.26 571.9 199.86 572.1L200.17 571.2C199.97 571.1 199.77 571 199.67 571ZM399.67 571.63L397.76 572.32L397.76 572.42L398.06 573.22L399.66 572.63L399.96 572.53L399.67 571.63ZM203.46 572.32C202.96 572.12 202.46 572.02 202.06 571.81L201.76 572.71L201.76 572.81C202.36 573.02 203.06 573.32 203.66 573.52L203.96 572.62C203.76 572.42 203.56 572.42 203.46 572.32ZM395.86 572.91C395.26 573.1 394.56 573.3 393.96 573.6L393.96 573.7L394.25 574.5C394.75 574.3 395.25 574.1 395.86 573.91C395.96 573.91 396.06 573.81 396.16 573.81L395.86 572.91ZM207.25 573.64C206.76 573.44 206.26 573.34 205.86 573.13L205.55 574.03L205.55 574.13C206.15 574.33 206.85 574.54 207.45 574.74L207.75 573.74C207.55 573.74 207.35 573.74 207.25 573.64ZM392.05 574.19C391.45 574.38 390.75 574.58 390.15 574.78L390.15 574.88L390.45 575.68C390.95 575.48 391.55 575.38 392.05 575.19C392.15 575.19 392.25 575.09 392.35 575.09L392.05 574.19ZM211.05 574.96C210.55 574.76 210.05 574.65 209.55 574.45L209.25 575.35L209.25 575.45C209.84 575.65 210.54 575.86 211.14 576.06L211.45 575.06C211.35 575.06 211.15 574.96 211.05 574.96ZM388.35 575.47C387.75 575.66 387.05 575.86 386.44 576.06L386.44 576.16L386.74 576.96C387.24 576.76 387.84 576.66 388.34 576.47C388.44 576.47 388.54 576.37 388.64 576.37L388.35 575.47ZM214.84 576.08C214.34 575.98 213.84 575.77 213.34 575.67L213.04 576.57L213.04 576.67C213.64 576.87 214.34 577.08 214.94 577.28L215.24 576.28C215.14 576.18 215.04 576.18 214.84 576.08ZM384.44 576.65C383.84 576.84 383.14 577.04 382.54 577.24L382.54 577.34L382.73 578.14C383.23 577.94 383.84 577.84 384.34 577.65C384.44 577.65 384.54 577.55 384.64 577.55L384.44 576.65ZM218.64 577.3C218.14 577.2 217.64 576.99 217.14 576.89L216.83 577.79L216.83 577.89C217.43 578.09 218.13 578.29 218.73 578.5L219.03 577.5C219.04 577.4 218.84 577.3 218.64 577.3ZM380.64 577.83C380.03 578.02 379.33 578.22 378.73 578.42L378.73 578.52L378.93 579.32C379.43 579.22 379.93 579.02 380.53 578.83C380.63 578.83 380.73 578.73 380.83 578.73L380.64 577.83ZM222.53 578.42C222.03 578.31 221.53 578.11 221.03 578.01L220.83 578.91L220.83 579.01C221.43 579.21 222.13 579.42 222.72 579.52L223.03 578.52C222.83 578.52 222.63 578.42 222.53 578.42ZM376.83 578.91C376.23 579.1 375.53 579.3 374.93 579.4L374.93 579.5L375.12 580.3C375.62 580.1 376.22 580 376.72 579.91C376.82 579.91 376.93 579.81 377.03 579.81L376.83 578.91ZM226.43 579.44C225.93 579.33 225.43 579.13 224.93 579.03L224.72 579.93L224.72 579.93C225.42 580.13 226.02 580.23 226.62 580.44L226.83 579.44C226.72 579.54 226.53 579.44 226.43 579.44ZM372.92 579.89C372.22 580.08 371.62 580.18 371.02 580.38L371.02 580.48L371.22 581.38C371.72 581.28 372.32 581.08 372.82 580.99C372.92 580.99 373.02 580.89 373.12 580.89L372.92 579.89ZM230.22 580.46C229.72 580.35 229.22 580.25 228.72 580.05L228.52 580.95L228.52 580.95C229.22 581.15 229.82 581.25 230.51 581.46L230.72 580.46C230.52 580.56 230.42 580.46 230.22 580.46ZM369.12 580.87C368.42 581.06 367.82 581.16 367.22 581.36L367.22 581.46L367.41 582.36C367.91 582.26 368.51 582.06 369.01 581.97C369.11 581.97 369.21 581.87 369.31 581.87L369.12 580.87ZM234.12 581.38C233.62 581.27 233.12 581.17 232.62 581.07L232.41 581.97L232.41 581.97C233.01 582.17 233.71 582.27 234.31 582.48L234.51 581.48C234.41 581.48 234.32 581.38 234.12 581.38ZM365.22 581.75C364.51 581.94 363.91 582.04 363.21 582.14L363.21 582.24L363.41 583.14C363.91 583.04 364.51 582.94 365.01 582.75C365.11 582.75 365.21 582.65 365.31 582.65L365.22 581.75ZM238.01 582.3C237.51 582.19 237.01 582.09 236.51 581.99L236.31 582.89L236.31 582.89C237.01 582.99 237.61 583.19 238.31 583.3L238.51 582.3C238.31 582.3 238.21 582.3 238.01 582.3ZM361.31 582.63C360.71 582.72 360.01 582.92 359.41 583.02L359.41 583.12L359.6 584.02C360.1 583.92 360.7 583.82 361.21 583.63C361.31 583.63 361.41 583.63 361.61 583.53L361.31 582.63ZM241.91 583.12C241.41 583.01 240.91 582.91 240.41 582.81L240.2 583.81L240.2 583.81C240.9 583.91 241.5 584.11 242.2 584.22L242.41 583.22C242.21 583.12 242.11 583.12 241.91 583.12ZM357.41 583.41C356.71 583.5 356.11 583.7 355.4 583.8L355.4 583.9L355.6 584.8C356.1 584.7 356.7 584.6 357.2 584.51C357.3 584.51 357.4 584.51 357.6 584.41L357.41 583.41ZM245.9 583.84C245.4 583.73 244.9 583.63 244.4 583.53L244.2 584.43L244.2 584.43C244.9 584.53 245.5 584.63 246.2 584.84L246.4 583.84C246.1 583.94 246 583.94 245.9 583.84ZM353.5 584.19C352.9 584.28 352.2 584.38 351.5 584.58L351.5 584.68L351.7 585.58C352.2 585.48 352.8 585.38 353.3 585.29C353.4 585.29 353.5 585.29 353.7 585.19L353.5 584.19ZM249.8 584.66C249.3 584.55 248.8 584.45 248.3 584.35L248.1 585.35L248.1 585.35C248.79 585.45 249.39 585.55 250.09 585.66L250.3 584.66C250.1 584.66 249.9 584.66 249.8 584.66ZM349.5 584.87C348.9 584.96 348.2 585.06 347.5 585.16L347.5 585.26L347.59 586.16C348.09 586.06 348.69 585.96 349.19 585.86C349.29 585.86 349.39 585.87 349.59 585.77L349.5 584.87ZM253.7 585.28C253.2 585.17 252.7 585.07 252.2 585.07L251.99 586.07L251.99 586.07C252.69 586.17 253.29 586.27 253.99 586.38L254.1 585.38C254 585.28 253.9 585.28 253.7 585.28ZM345.6 585.55C344.89 585.64 344.29 585.74 343.59 585.84L343.59 585.94L343.69 586.84C344.19 586.74 344.79 586.64 345.29 586.54C345.39 586.54 345.49 586.55 345.69 586.45L345.6 585.55ZM257.69 585.9C257.19 585.79 256.69 585.69 256.19 585.69L255.99 586.69L255.99 586.69C256.69 586.79 257.29 586.89 257.99 587L258.09 586C257.99 585.9 257.79 585.9 257.69 585.9ZM341.69 586.13C340.99 586.22 340.39 586.32 339.69 586.42L339.69 586.52L339.79 587.42C340.29 587.32 340.89 587.32 341.39 587.22C341.49 587.22 341.59 587.22 341.79 587.23L341.69 586.13ZM261.69 586.42C261.19 586.31 260.69 586.31 260.09 586.21L259.99 587.21C260.49 587.31 260.99 587.31 261.58 587.42C261.68 587.42 261.88 587.42 261.98 587.52L262.09 586.52C261.89 586.52 261.79 586.52 261.69 586.42ZM337.69 586.71C336.99 586.8 336.39 586.9 335.69 586.99L335.69 587.09L335.78 588C336.38 587.9 336.88 587.9 337.38 587.8C337.48 587.8 337.58 587.8 337.78 587.81L337.69 586.71ZM265.59 586.94C265.09 586.83 264.59 586.83 263.99 586.73L263.88 587.73C264.38 587.83 264.88 587.83 265.48 587.93C265.58 587.94 265.78 587.94 265.88 587.94L265.99 586.94C265.89 586.94 265.79 586.94 265.59 586.94ZM333.69 587.18C332.99 587.28 332.39 587.28 331.69 587.37L331.69 587.47L331.78 588.37C332.28 588.28 332.88 588.28 333.38 588.18C333.48 588.18 333.58 588.18 333.78 588.18L333.69 587.18ZM267.99 587.25L267.88 588.25C268.38 588.35 268.88 588.35 269.48 588.46C269.58 588.46 269.78 588.46 269.88 588.46L269.98 587.46C269.29 587.35 268.69 587.35 267.99 587.25ZM329.78 587.56C329.08 587.66 328.48 587.66 327.78 587.75L327.78 587.85L327.88 588.75C328.38 588.66 328.98 588.66 329.48 588.56C329.58 588.56 329.68 588.56 329.88 588.56L329.78 587.56ZM272.08 587.67C272.08 587.67 271.98 587.67 272.08 587.67L271.88 588.67C272.38 588.67 272.98 588.77 273.48 588.78C273.58 588.78 273.78 588.78 273.88 588.78L273.98 587.78C273.38 587.78 272.68 587.77 272.08 587.67ZM325.78 587.94C325.08 588.04 324.48 588.04 323.78 588.13L323.78 588.23L323.88 589.13C324.38 589.04 324.98 589.04 325.48 588.94C325.58 588.94 325.68 588.94 325.88 588.94L325.78 587.94ZM275.98 587.99L275.98 587.99L275.88 588.99C276.38 589.09 276.88 589.09 277.48 589.1L277.88 589.1L277.98 588.1C277.28 588.1 276.58 588.09 275.98 587.99ZM321.78 588.22C321.08 588.22 320.48 588.32 319.78 588.41L319.78 588.51L319.88 589.41C320.38 589.42 320.98 589.32 321.48 589.32C321.58 589.32 321.68 589.32 321.88 589.32L321.78 588.22ZM279.98 588.31L279.98 588.31L279.88 589.31C280.38 589.31 280.87 589.41 281.47 589.42L281.87 589.42L281.98 588.42C281.28 588.42 280.58 588.41 279.98 588.31ZM317.78 588.5C317.08 588.6 316.48 588.6 315.78 588.59L315.78 588.69L315.87 589.59C316.37 589.6 316.97 589.5 317.47 589.5C317.57 589.5 317.67 589.5 317.87 589.5L317.78 588.5ZM313.88 588.78C313.18 588.78 312.58 588.88 311.88 588.87L311.88 588.87L311.87 589.87C312.37 589.87 312.97 589.88 313.47 589.78C313.57 589.78 313.67 589.78 313.87 589.78L313.88 588.78Z" />
				</g>
			</g>
		</g>
	</g>
	<g id="Layer_3">
		<g id="Layer">
			<path id="Layer" class="shp1" d="M95.86 104.19C91.05 104.17 87.18 100.26 87.2 95.45C87.23 90.64 91.14 86.77 95.95 86.79C100.76 86.82 104.63 90.73 104.6 95.54C104.58 100.35 100.67 104.21 95.86 104.19Z" />
			<path id="Layer" class="shp1" d="M300.99 19.56C296.18 19.54 292.31 15.63 292.34 10.82C292.36 6.01 296.27 2.14 301.08 2.17C305.89 2.19 309.76 6.1 309.74 10.91C309.71 15.72 305.81 19.59 300.99 19.56Z" />
			<path id="Layer" class="shp1" d="M298.03 598.6C293.22 598.57 289.35 594.67 289.37 589.86C289.4 585.05 293.31 581.18 298.12 581.2C302.93 581.23 306.8 585.14 306.77 589.95C306.75 594.76 302.84 598.62 298.03 598.6Z" />
		</g>
		<g id="Layer">
			<path id="Layer" class="shp2" d="M95.86 104.19C91.05 104.17 87.18 100.26 87.2 95.45C87.23 90.64 91.14 86.77 95.95 86.79C100.76 86.82 104.63 90.73 104.6 95.54C104.58 100.35 100.67 104.21 95.86 104.19Z" />
			<path id="Layer" class="shp2" d="M300.99 19.56C296.18 19.54 292.31 15.63 292.34 10.82C292.36 6.01 296.27 2.14 301.08 2.17C305.89 2.19 309.76 6.1 309.74 10.91C309.71 15.72 305.81 19.59 300.99 19.56Z" />
			<path id="Layer" class="shp2" d="M298.03 598.6C293.22 598.57 289.35 594.67 289.37 589.86C289.4 585.05 293.31 581.18 298.12 581.2C302.93 581.23 306.8 585.14 306.77 589.95C306.75 594.76 302.84 598.62 298.03 598.6Z" />
		</g>
	</g>
	<g id="Layer_4_copy">
		<path id="Layer" class="shp1" d="M11.01 308.4C6.2 308.38 2.33 304.47 2.36 299.66C2.38 294.85 6.29 290.98 11.1 291.01C15.91 291.03 19.78 294.94 19.76 299.75C19.73 304.56 15.82 308.43 11.01 308.4Z" />
	</g>
	<g id="Layer_4">
		<path id="Layer" class="shp1" d="M94.87 512.38C90.06 512.36 86.19 508.45 86.21 503.64C86.24 498.83 90.15 494.96 94.96 494.99C99.77 495.01 103.64 498.92 103.61 503.73C103.59 508.54 99.68 512.41 94.87 512.38Z" />
	</g>
	<g id="Layer_3_copy">
		<g id="Layer">
			<path id="Layer" class="shp1" d="M506.36 105.19C501.55 105.17 497.68 101.26 497.7 96.45C497.73 91.64 501.64 87.77 506.45 87.8C511.26 87.82 515.13 91.73 515.1 96.54C515.08 101.35 511.17 105.22 506.36 105.19Z" />
		</g>
		<g id="Layer">
			<path id="Layer" class="shp2" d="M506.36 105.19C501.55 105.17 497.68 101.26 497.7 96.45C497.73 91.64 501.64 87.77 506.45 87.8C511.26 87.82 515.13 91.73 515.1 96.54C515.08 101.35 511.17 105.22 506.36 105.19Z" />
		</g>
	</g>
	<g id="Layer_4_copy_3">
		<path id="Layer" class="shp1" d="M590.3 311.37C585.49 311.34 581.62 307.44 581.65 302.63C581.67 297.82 585.58 293.95 590.39 293.97C595.2 294 599.07 297.91 599.05 302.72C599.02 307.53 595.11 311.39 590.3 311.37Z" />
	</g>
	<g id="Layer_4_copy_2">
		<path id="Layer" class="shp1" d="M503.16 515.57C498.34 515.55 494.48 511.64 494.5 506.83C494.53 502.02 498.43 498.15 503.25 498.18C508.06 498.2 511.93 502.11 511.9 506.92C511.88 511.73 507.97 515.6 503.16 515.57Z" />
	</g>
</svg>