<svg xmlns="http://www.w3.org/2000/svg" width="1475.719" height="713.812" viewBox="0 0 1475.719 713.812">
  <defs>
    <style>
      .cls-1 {
        fill: none;
        stroke: #fff;
        stroke-linejoin: round;
        stroke-width: 1px;
        fill-rule: evenodd;
      }
    </style>
  </defs>
  <path id="let_s_work_together" data-name="let’s   work     together" class="cls-1" d="M580.445,310.043V264.872H500.723V103.021H444.791V310.043H580.445Zm156.045-45.6H669.512V225.365h62.022V180.477H669.512V147.909H736.49V103.021H613.58V310.043H736.49v-45.6ZM864.073,148.759h50.41V103.021H757.588v45.738H808.14V310.043h55.933V148.759Zm76.748-45.454q-4.248,37.668-13.877,82.553h39.365q12.034-27.612,25.064-79.438l-2.124-3.115H940.821Zm200.719,109.1q-10.41-13.807-37.17-25.843-27.9-12.744-34.2-17.558t-6.3-10.9a11.559,11.559,0,0,1,4.96-9.487q4.95-3.823,15.86-3.823,21.09,0,50.13,13.31l17.13-43.188q-33.42-14.868-65.56-14.868-36.405,0-57.21,16-20.82,16-20.82,44.6,0,15.293,4.89,26.48a54.792,54.792,0,0,0,15.01,19.824q10.125,8.639,30.37,17.842,22.38,10.056,27.54,13.31a27.239,27.239,0,0,1,7.51,6.443,12.22,12.22,0,0,1,2.34,7.434,13.283,13.283,0,0,1-5.81,11.116q-5.805,4.322-18.27,4.319a123.884,123.884,0,0,1-31.71-4.6A166.494,166.494,0,0,1,1006.95,250v49.844a128.667,128.667,0,0,0,29.17,10.124q14.01,2.9,34.69,2.9,24.78,0,43.19-8.284t28.18-23.222q9.765-14.938,9.77-34.2Q1151.95,226.217,1141.54,212.409ZM870.02,353.021H816.07L793.13,457.1q-8.214,38.8-10.053,54.517-1.56-12.177-6.231-36.816t-9.2-43.472l-17.7-78.306H698.116l-18.267,78.306q-4.109,16.286-8.85,41.064t-6.584,39.224q-2.835-20.391-10.479-54.8L631.421,353.021h-53.95l51.26,207.022h66.128q18.123-81.42,20.6-92.891t5.027-25.134q2.548-13.663,3.681-22.869,1.415,11.331,4.461,28.179t4.46,22.515l19.825,90.2h66.128Zm194.99,23.789q-25.5-27.043-74.912-27.046-49.276,0-75.119,27.259t-25.843,78.943q0,52.251,25.984,79.58t74.7,27.329q49.418,0,75.045-27.188t25.63-79.438Q1090.49,403.859,1065.01,376.81ZM990.1,395.643q20.673,0,31.082,14.8t10.41,45.808q0,30.871-10.27,45.454t-31.5,14.585q-41.774,0-41.772-60.039,0-60.6,42.055-60.606h0Zm207.872,89.068,43.9,75.332h63.43l-60.32-90.2q35.115-19.682,35.12-55.65,0-61.172-84.4-61.172h-67.82V560.043h55.93V484.711h14.16Zm-14.16-89.351h11.04q28.755,0,28.75,21.382,0,25.912-29.31,25.913h-10.48V395.36Zm253.04,50.41,65.28-92.749h-61.17l-43.47,63.438q-12.9,18.127-17.14,26.479V353.021h-56.21V560.043h56.21V490.8l16.57-9.912,40.92,79.155H1501Zm-599.4,202.989h50.41V603.021H730.967v45.738h50.552V810.043h55.933V648.759ZM1085.68,626.81q-25.485-27.043-74.91-27.046-49.273,0-75.118,27.259T909.81,705.966q0,52.251,25.984,79.58t74.7,27.329q49.41,0,75.05-27.188,25.62-27.187,25.63-79.438Q1111.17,653.859,1085.68,626.81Zm-74.91,18.833q20.67,0,31.08,14.8t10.41,45.808q0,30.871-10.26,45.454t-31.51,14.585q-41.775,0-41.774-60.039,0-60.6,42.054-60.606h0Zm220.9,86.377h36.96v32.427a102.466,102.466,0,0,1-22.94,2.407q-22.8,0-34.91-15.222t-12.1-44.25q0-29.593,13.38-45.525t37.88-15.93q26.76,0,49.13,11.044l17.7-43.9a156.018,156.018,0,0,0-30.23-9.346,177.483,177.483,0,0,0-36.89-3.681q-51.54,0-80.14,27.895t-28.61,78.023q0,51.4,26.13,79.155t73.99,27.754q43.605,0,80-12.461V688.832h-89.35V732.02Zm254.46,32.427h-66.98V725.365h62.02V680.477h-62.02V647.909h66.98V603.021H1363.22V810.043h122.91v-45.6Zm127.58-115.688h50.41V603.021H1507.23v45.738h50.55V810.043h55.93V648.759Zm257.43-45.738h-56.21v76.748h-65V603.021h-56.21V810.043h56.21V725.648h65v84.395h56.21V603.021ZM2038.8,764.447h-66.98V725.365h62.02V680.477h-62.02V647.909h66.98V603.021H1915.89V810.043H2038.8v-45.6Zm106.34-29.736,43.9,75.332h63.44l-60.33-90.2q35.115-19.682,35.12-55.65,0-61.171-84.39-61.172h-67.83V810.043h55.93V734.711h14.16Zm-14.16-89.351h11.05q28.74,0,28.74,21.382,0,25.913-29.31,25.913h-10.48V645.36Z" transform="translate(-444.281 -99.563)"/>
</svg>
