<svg 
 xmlns="http://www.w3.org/2000/svg"
 xmlns:xlink="http://www.w3.org/1999/xlink"
 width="1816.5px" height="720.5px">
<path fill-rule="evenodd"  stroke="rgb(37, 38, 38)" stroke-width="1px" stroke-linecap="butt" stroke-linejoin="miter" stroke-width="1px" stroke="rgb(255, 255, 255)" fill="none"
 d="M1811.976,713.543 L1748.539,713.543 L1704.642,638.211 L1690.482,638.211 L1690.482,713.543 L1634.549,713.543 L1634.549,506.521 L1702.377,506.521 C1758.639,506.521 1786.771,526.912 1786.771,567.693 C1786.771,591.673 1775.065,610.222 1751.654,623.343 L1811.976,713.543 ZM1701.527,548.860 L1690.482,548.860 L1690.482,596.155 L1700.961,596.155 C1720.502,596.155 1730.272,587.517 1730.272,570.242 C1730.272,555.989 1720.690,548.860 1701.527,548.860 ZM1475.389,506.521 L1598.299,506.521 L1598.299,551.409 L1531.322,551.409 L1531.322,583.977 L1593.343,583.977 L1593.343,628.865 L1531.322,628.865 L1531.322,667.947 L1598.299,667.947 L1598.299,713.543 L1475.389,713.543 L1475.389,506.521 ZM1374.427,629.148 L1309.432,629.148 L1309.432,713.543 L1253.216,713.543 L1253.216,506.521 L1309.432,506.521 L1309.432,583.269 L1374.427,583.269 L1374.427,506.521 L1430.643,506.521 L1430.643,713.543 L1374.427,713.543 L1374.427,629.148 ZM1173.211,713.543 L1117.279,713.543 L1117.279,552.259 L1066.727,552.259 L1066.727,506.521 L1223.622,506.521 L1223.622,552.259 L1173.211,552.259 L1173.211,713.543 ZM1060.497,463.543 L997.342,463.543 L956.420,384.388 L939.852,394.300 L939.852,463.543 L883.636,463.543 L883.636,256.521 L939.852,256.521 L939.852,346.438 C942.684,340.869 948.395,332.044 956.986,319.959 L1000.458,256.521 L1061.630,256.521 L996.351,349.270 L1060.497,463.543 ZM726.529,688.621 C709.112,670.120 700.404,643.733 700.404,609.466 C700.404,576.048 709.938,550.042 729.007,531.443 C748.075,512.847 774.791,503.548 809.154,503.548 C822.181,503.548 834.476,504.776 846.041,507.229 C857.604,509.685 867.682,512.800 876.273,516.575 L858.573,560.472 C843.656,553.108 827.279,549.427 809.437,549.427 C793.104,549.427 780.480,554.737 771.559,565.357 C762.638,575.977 758.177,591.153 758.177,610.882 C758.177,630.235 762.213,644.986 770.284,655.132 C778.356,665.281 789.989,670.354 805.189,670.354 C813.495,670.354 821.141,669.553 828.129,667.947 L828.129,635.520 L791.170,635.520 L791.170,592.332 L880.521,592.332 L880.521,703.914 C856.259,712.222 829.591,716.375 800.516,716.375 C768.607,716.375 743.946,707.124 726.529,688.621 ZM801.366,463.543 L757.469,388.211 L743.309,388.211 L743.309,463.543 L687.377,463.543 L687.377,256.521 L755.204,256.521 C811.466,256.521 839.598,276.912 839.598,317.693 C839.598,341.673 827.892,360.222 804.481,373.343 L864.803,463.543 L801.366,463.543 ZM754.354,298.860 L743.309,298.860 L743.309,346.155 L753.788,346.155 C773.329,346.155 783.099,337.517 783.099,320.242 C783.099,305.989 773.517,298.860 754.354,298.860 ZM663.871,90.066 C681.712,98.091 694.103,106.704 701.041,115.909 C707.980,125.113 711.449,136.702 711.449,150.672 C711.449,163.511 708.192,174.910 701.678,184.869 C695.165,194.829 685.770,202.569 673.500,208.091 C661.227,213.614 646.830,216.375 630.311,216.375 C616.527,216.375 604.964,215.406 595.619,213.472 C586.273,211.538 576.549,208.162 566.449,203.348 L566.449,153.504 C577.115,158.980 588.207,163.252 599.725,166.319 C611.241,169.387 621.815,170.921 631.444,170.921 C639.750,170.921 645.839,169.483 649.711,166.602 C653.580,163.723 655.516,160.017 655.516,155.486 C655.516,152.654 654.737,150.176 653.180,148.052 C651.622,145.928 649.120,143.782 645.675,141.609 C642.228,139.439 633.048,135.003 618.133,128.299 C604.632,122.163 594.508,116.216 587.760,110.457 C581.009,104.700 576.007,98.091 572.750,90.633 C569.493,83.176 567.865,74.348 567.865,64.153 C567.865,45.086 574.803,30.217 588.680,19.549 C602.557,8.882 621.625,3.548 645.887,3.548 C667.316,3.548 689.169,8.504 711.449,18.416 L694.315,61.604 C674.962,52.732 658.253,48.294 644.188,48.294 C636.918,48.294 631.632,49.568 628.329,52.117 C625.023,54.666 623.373,57.830 623.373,61.604 C623.373,65.664 625.472,69.300 629.674,72.508 C633.873,75.718 645.272,81.570 663.871,90.066 ZM486.444,89.358 C492.862,59.434 497.489,31.917 500.321,6.805 L548.749,6.805 L550.873,9.920 C542.186,44.471 533.832,70.950 525.809,89.358 L486.444,89.358 ZM549.598,253.264 C582.543,253.264 607.513,262.281 624.505,280.310 C641.498,298.342 649.994,324.822 649.994,359.749 C649.994,394.583 641.449,421.062 624.364,439.187 C607.277,457.312 582.260,466.375 549.315,466.375 C516.840,466.375 491.942,457.266 474.620,439.046 C457.296,420.828 448.636,394.300 448.636,359.466 C448.636,325.010 457.250,298.697 474.479,280.523 C491.705,262.351 516.747,253.264 549.598,253.264 ZM549.315,419.788 C563.475,419.788 573.976,414.927 580.821,405.203 C587.665,395.481 591.087,380.330 591.087,359.749 C591.087,339.075 587.618,323.806 580.680,313.941 C573.741,304.077 563.380,299.143 549.598,299.143 C521.561,299.143 507.543,319.346 507.543,359.749 C507.543,399.776 521.466,419.788 549.315,419.788 ZM423.573,213.543 L367.640,213.543 L367.640,52.259 L317.088,52.259 L317.088,6.521 L473.983,6.521 L473.983,52.259 L423.573,52.259 L423.573,213.543 ZM336.346,378.299 C339.462,394.724 341.537,406.997 342.577,415.115 C343.803,404.637 347.154,386.465 352.630,360.598 L375.570,256.521 L429.520,256.521 L378.544,463.543 L312.416,463.543 L292.591,373.343 C291.647,369.568 290.160,362.063 288.131,350.828 C286.100,339.595 284.613,330.203 283.670,322.649 C282.914,328.787 281.688,336.409 279.989,345.518 C278.290,354.629 276.613,363.006 274.962,370.652 C273.309,378.299 266.441,409.263 254.359,463.543 L188.231,463.543 L136.971,256.521 L190.921,256.521 L213.436,360.315 C218.534,383.255 222.025,401.521 223.915,415.115 C225.140,405.486 227.335,392.412 230.499,375.891 C233.661,359.373 236.610,345.684 239.349,334.827 L257.616,256.521 L309.442,256.521 L327.142,334.827 C330.162,347.383 333.231,361.873 336.346,378.299 ZM173.080,6.521 L295.990,6.521 L295.990,51.409 L229.012,51.409 L229.012,83.977 L291.034,83.977 L291.034,128.865 L229.012,128.865 L229.012,167.947 L295.990,167.947 L295.990,213.543 L173.080,213.543 L173.080,6.521 ZM4.291,6.521 L60.223,6.521 L60.223,168.372 L139.945,168.372 L139.945,213.543 L4.291,213.543 L4.291,6.521 ZM447.362,552.259 L396.952,552.259 L396.952,713.543 L341.019,713.543 L341.019,552.259 L290.467,552.259 L290.467,506.521 L447.362,506.521 L447.362,552.259 ZM570.272,503.264 C603.217,503.264 628.187,512.281 645.179,530.310 C662.171,548.342 670.668,574.822 670.668,609.749 C670.668,644.583 662.123,671.062 645.038,689.187 C627.950,707.312 602.933,716.375 569.989,716.375 C537.513,716.375 512.616,707.266 495.294,689.046 C477.970,670.828 469.310,644.300 469.310,609.466 C469.310,575.010 477.923,548.696 495.152,530.523 C512.379,512.351 537.421,503.264 570.272,503.264 ZM569.989,669.788 C584.149,669.788 594.650,664.927 601.495,655.203 C608.339,645.481 611.761,630.330 611.761,609.749 C611.761,589.075 608.292,573.806 601.354,563.941 C594.415,554.077 584.054,549.143 570.272,549.143 C542.235,549.143 528.216,569.346 528.216,609.749 C528.216,649.776 542.140,669.788 569.989,669.788 ZM1045.629,551.409 L978.651,551.409 L978.651,583.977 L1040.672,583.977 L1040.672,628.865 L978.651,628.865 L978.651,667.947 L1045.629,667.947 L1045.629,713.543 L922.718,713.543 L922.718,506.521 L1045.629,506.521 L1045.629,551.409 Z"/>
</svg>