<?xml version="1.0" encoding="utf-8"?>
<!-- Generator: Adobe Illustrator 22.1.0, SVG Export Plug-In . SVG Version: 6.00 Build 0)  -->
<svg version="1.1" id="Layer_1" xmlns="http://www.w3.org/2000/svg" xmlns:xlink="http://www.w3.org/1999/xlink" x="0px" y="0px"
	 viewBox="0 0 433 87" style="enable-background:new 0 0 433 87;" xml:space="preserve">
<g id="_x23_000000ff">
	<path d="M43.5,0h0.8c6.2,0.3,12.3,2.2,18,4.8C73.3,10,81.7,20.2,85,32c4.1,11.1,1.1,23.4-4.7,33.3C74.2,75.5,63.7,82.9,52,85.2
		c-9.5,2.6-19.5,0.1-28.1-4.1C9.5,73.8,0.7,57.8,0.7,42c1-9.6,4.2-19.2,10.7-26.5C19.3,6.1,31.4,0.8,43.5,0 M26,8
		C17.6,13,9.8,20.8,8.4,30.9c-1.3,8.9,4.3,17,11,22.2c-0.9,2.8-2.6,5.8-1.5,8.8c1.2,3.1,5,3.2,7.5,4.8c1.9,3.3-0.2,8.7,4.1,10.6
		c9.8,3,19.4-5.6,20.6-15.1c-10.1-3.7-20.3-7.4-29.8-12.5c-4.4-2.2-6.1-7.4-5.8-12.1c1.9,0,3.7,0,5.6,0c0.3,1.2,0.6,2.5,0.9,3.7
		c1.7-1.5,3.5-2.8,5.1-4.5c1.8-1.9,2.4-4.8,4.7-6.2c2.3-1.2,4.9-1.6,7.4-2.4c-1.4-2.2-2.5-6.5-5.9-6c-1.2,0.8-2.3,1.8-3.4,2.7
		c-0.7-1.3-1.4-2.7-2.1-4c3.6-1.5,8.8-4.6,6.7-9.2C31.7,9.7,28.9,6,26,8 M51.3,7c3.3,4.1,6.7,8.3,9.2,13c-1.8,1-3.7,2-5.6,3
		c3.3,1.6,5.8,4.5,6.6,8.1c2.3,6.4-3.4,12.5-1.6,18.9c0.6,2.2,2.8,3.6,5,3.7c3.5,0.3,7.7,0.8,10.3-2.3c0.9,2.3,1.8,4.7,2.7,7
		C81.3,47.3,82,34.8,77,24.1C72.3,14.2,61.8,8.4,51.3,7 M36.1,9.7c1.8,3.9,3.9,7.7,6,11.5c3.2-1.3,4.4-5.3,3.3-8.4
		C43.3,9.8,39.3,9.8,36.1,9.7z"/>
	<path d="M106.4,20.1c7.4,0.1,15.1-1.1,22.2,1.4c9.6,4.7,9.9,20.6,0.8,25.9c-4.6,2.3-10,1.8-15,1.9c0,6.2,0,12.5,0,18.7
		c-2.7,0-5.4,0-8.1,0C106.5,52,106.6,36,106.4,20.1 M114.5,26.2c0,5.6,0,11.2,0,16.8c3.8-0.2,8.3,0.6,11.3-2.1
		c2.6-3.4,2.6-8.5,0.3-12.1C123.5,25.1,118.4,26.5,114.5,26.2z"/>
	<path d="M142,20c2.4,0,4.8,0,7.2,0c0,16,0,32,0,48c-2.4,0-4.8,0-7.2,0C142,52,142,36,142,20z"/>
	<path d="M257.5,23.2c2.2-0.2,4.5-0.5,6.7-0.7c0,3.4,0,6.7,0.1,10.1c2.2,0,4.4-0.1,6.7-0.1c0,2,0,4,0,6c-2.2,0-4.5,0-6.7,0
		c0.1,7-0.3,14,0.2,20.9c0.3,3.9,5,3.4,7.8,3.2c0,1.9,0,3.9,0,5.8c-4.1,0.6-8.9,1.4-12.4-1.4c-2.6-2.2-2.6-5.9-2.8-9
		c-0.1-6.5,0-13-0.1-19.5c-1.5,0-3,0-4.5,0c0-2,0-4,0-6c1.6,0,3.1,0,4.7,0C257.4,29.4,257.5,26.3,257.5,23.2z"/>
	<path d="M157,41.8c1.8-9.8,15.2-13.1,22.5-7.2c2.3,1.9,2.7,5,2.9,7.8C182.8,51,182,59.5,183,68c-2.3,0-4.6,0-6.9-0.1
		c-0.1-1.8-0.3-3.5-0.4-5.3c-1.4,1.9-2.8,4-4.9,5.2c-4.2,2.2-10.1,1.4-13-2.6c-3.4-5.1-2.2-13,3.2-16.4c4.3-2.7,9.5-2.5,14.4-2.7
		c-0.2-2.6,0-5.6-1.8-7.8c-2-1.6-5.1-1.5-7.1,0c-1.2,1.2-1.7,2.9-2.7,4.2C161.5,42.5,159.2,42.1,157,41.8 M167.1,52
		c-3.4,1.7-4.2,6.4-2.6,9.6c1.5,2.7,5.6,2.5,7.5,0.4c3.2-2.8,3.3-7.4,3.4-11.3C172.6,50.8,169.6,50.6,167.1,52z"/>
	<path d="M197.7,37.8c2.1-5.6,9.3-8,14.3-4.7c3.7,2.2,3.7,7,3.8,10.8c0,8,0,16,0,24c-2.4,0-4.9,0-7.3-0.1c-0.1-9,0.4-18-0.3-26.9
		c-0.1-3.4-4.5-4.1-6.9-2.6c-2.6,1.5-2.8,4.8-3,7.5c-0.1,7.3,0,14.7,0,22c-2.4,0-4.8,0-7.2,0c0-11.8,0-23.7,0-35.5
		c2.2,0,4.5,0,6.8,0C197.7,34.3,197.7,36.1,197.7,37.8z"/>
	<path d="M226.9,35.9c4.8-5.5,14.5-5.7,19.1,0.1c3.6,4.3,3.8,10.2,4,15.6c-6.8-0.1-13.6,0-20.3,0c0.4,2.8,0.3,5.8,1.4,8.4
		c1.4,3.2,5.6,4.6,8.6,2.8c2.2-1.2,2.6-3.9,3.5-6c2.2,0.3,4.5,0.6,6.7,0.9c-1.1,3.1-2.1,6.4-4.8,8.5c-5.6,4.5-14.9,3.7-19.3-2.1
		c-2.9-3.7-3.5-8.6-3.6-13.1C222.2,45.7,223.2,40,226.9,35.9 M232.1,39.2c-1.6,2.1-1.8,4.8-2.3,7.2c4.4,0,8.7,0,13,0
		c-0.3-2.3-0.3-4.7-1.6-6.8C239.4,36.6,234.3,36.3,232.1,39.2z"/>
	<path d="M276.5,41.9c1.6-9.8,14.7-13.1,22-7.6c2.4,1.7,3.1,4.8,3.3,7.6c0.5,8.7-0.4,17.5,0.7,26.1c-2.3,0-4.5,0-6.8,0
		c-0.2-1.7-0.4-3.4-0.5-5c-1.7,2-3.3,4.4-5.9,5.3c-4.4,1.8-10.2,0.5-12.5-3.9c-2.6-4.9-1.5-11.9,3.2-15.2c4.3-3,9.8-2.8,14.8-3
		c-0.2-3.2,0-8.1-4-8.8c-3.6-1-6.6,2-7.3,5.3C281.2,42.4,278.9,42.2,276.5,41.9 M284.6,53.6c-2.5,3.2-1.7,10.3,3.5,9.9
		c5.9-0.9,7-8,6.8-12.9C291.3,50.8,287,50.6,284.6,53.6z"/>
</g>
<g id="_x23_4bb0daff">
	<path d="M319.8,20c2.7,0,5.4,0,8.1,0c2.2,12,4.4,24,6.6,36c2.2-12.1,5-24,7.4-36c2.3,0,4.6,0,6.9,0c2.5,12,5,24,7.5,36.1
		C358.2,44,360.7,32,363,20c2.2,0,4.5,0,6.8,0c-3.3,16-6.8,32-10.1,48c-2.4,0-4.8,0-7.2,0c-2.5-11.7-4.9-23.4-7.6-35.1
		c-2.5,11.7-4.9,23.4-7.4,35.1c-2.5,0-4.9,0-7.4,0C326.7,52,323.2,36,319.8,20z"/>
	<path d="M404.8,20c2.4,0,4.8,0,7.2,0c0,5.4,0,10.9,0,16.3c2.3-3.1,6-5.3,10-4.5c5.8,0.8,9.1,6.7,9.9,12c0.9,6.3,0.7,13.1-2.1,18.9
		c-2.5,5.4-9.5,7.7-14.9,5.4c-2-0.9-3.2-2.9-4.6-4.5c-0.4,1.5-0.9,2.9-1.3,4.4c-1.4,0-2.8,0-4.2,0C404.8,52,404.8,36,404.8,20
		 M416.5,37.6c-3.6,1.5-4.6,5.9-4.5,9.4c0.2,4.5-0.6,9.4,1.4,13.6c1.4,3.2,6.2,4,8.5,1.4c2-2.2,2.1-5.3,2.4-8.1
		c0.2-4.4,0.4-8.9-1-13.1C422.5,38,419.2,36.4,416.5,37.6z"/>
	<path d="M375.9,35.9c4.8-5.5,14.5-5.7,19.1,0.1c3.6,4.3,3.7,10.2,4.1,15.5c-6.8,0-13.6,0-20.4,0c0.4,2.8,0.2,5.8,1.4,8.4
		c1.3,2.9,4.9,4.5,7.9,3.2c2.7-0.9,3.4-4,4.2-6.3c2.2,0.3,4.5,0.6,6.8,0.9c-1.1,3.1-2.1,6.4-4.8,8.5c-5.5,4.5-14.8,3.7-19.2-2
		c-2.9-3.7-3.6-8.6-3.7-13.2C371.2,45.7,372.2,40,375.9,35.9 M381.1,39.3c-1.6,2.1-1.8,4.8-2.3,7.2c4.4,0,8.7,0,13.1,0
		c-0.4-2.7-0.4-5.8-2.5-7.9C387.1,36.6,383,36.7,381.1,39.3z"/>
</g>
</svg>
