<svg xmlns="http://www.w3.org/2000/svg" viewBox="0 0 1489 1470" width="1489" height="1470">
	<defs>
		<clipPath clipPathUnits="userSpaceOnUse" id="cp1">
			<path d="M0 0L1489 0L1489 1470L0 1470Z" />
		</clipPath>
	</defs>
	<style>
		tspan { white-space:pre }
		.shp0 { fill: #333335 } 
		.shp1 { fill: #1d1d1e } 
		.shp2 { fill: #313133 } 
		.shp3 { fill: #383838 } 
		.shp4 { fill: #424242 } 
		.shp5 { fill: #282828 } 
		.shp6 { fill: #2b2b2b } 
		.shp7 { fill: #232323 } 
		.shp8 { fill: #2d2d2d } 
		.shp9 { fill: #3e3e3f } 
		.shp10 { fill: #464647 } 
		.shp11 { fill: #353538 } 
		.shp12 { fill: #2c2c2d } 
		.shp13 { fill: #29292b } 
		.shp14 { fill: #161616 } 
		.shp15 { fill: #272728 } 
		.shp16 { fill: #262626 } 
		.shp17 { fill: #2f2f30 } 
		.shp18 { fill: #3d3d3d } 
		.shp19 { fill: #303030 } 
		.shp20 { fill: #2a2a2b } 
		.shp21 { fill: #333333 } 
	</style>
	<g id="Page 1" clip-path="url(#cp1)">
		<path id="Path 1" class="shp0" d="M519.34 280.89L234.34 764.53L738.89 739.88L519.34 280.89Z" />
		<path id="Path 2" fill-rule="evenodd" class="shp1" d="M232.99 765.34L519.41 279.29L520.02 280.56L740.05 740.58L738.93 740.63L232.99 765.34ZM519.27 282.48L235.69 763.71L737.73 739.19L519.27 282.48Z" />
		<path id="Path 3" class="shp2" d="M738.89 739.88L1015.07 336.16L519.34 280.88L738.89 739.88Z" />
		<path id="Path 4" fill-rule="evenodd" class="shp1" d="M738.78 741.38L738.22 740.2L518.08 279.99L519.43 280.14L1016.39 335.55L1015.69 336.58L738.78 741.38ZM520.6 281.78L739.01 738.38L1013.74 336.77L520.6 281.78Z" />
		<path id="Path 5" class="shp3" d="M1015.07 336.16L890.02 28.71L519.34 280.89L1015.07 336.16Z" />
		<path id="Path 6" fill-rule="evenodd" class="shp1" d="M1016.24 337.05L1014.99 336.91L517.24 281.41L518.92 280.27L890.37 27.56L890.71 28.42L1016.24 337.05ZM521.44 280.37L1013.9 335.28L889.67 29.85L521.44 280.37Z" />
		<path id="Path 7" class="shp4" d="M519.34 280.88L890.02 28.71L412.25 63.47L519.34 280.88Z" />
		<path id="Path 8" fill-rule="evenodd" class="shp1" d="M519.05 281.99L518.67 281.21L411.08 62.8L412.19 62.72L892.75 27.76L519.05 281.99ZM413.41 64.13L519.63 279.78L887.29 29.66L413.41 64.13Z" />
		<path id="Path 9" class="shp5" d="M412.25 63.47L890.02 28.71L738.89 1.08L412.25 63.47Z" />
		<path id="Path 10" fill-rule="evenodd" class="shp1" d="M739.03 0.34L895.95 29.03L412.3 64.22L412.11 62.73L738.89 0.32L739.03 0.34ZM425.07 61.78L884.09 28.39L738.9 1.84L425.07 61.78Z" />
		<path id="Path 11" class="shp6" d="M1012.48 336.16L1256.89 351.71L890.02 28.71L1012.48 336.16Z" />
		<path id="Path 12" fill-rule="evenodd" class="shp1" d="M1259.03 352.59L1011.96 336.88L1011.78 336.44L888.16 26.07L1259.03 352.59ZM1013 335.44L1254.75 350.82L891.88 31.34L1013 335.44Z" />
		<path id="Path 13" class="shp7" d="M1256.03 351.71L1134.01 120.68L890.02 28.71L1256.03 351.71Z" />
		<path id="Path 14" fill-rule="evenodd" class="shp1" d="M1258.6 354.98L886.46 26.56L1134.54 120.08L1134.68 120.33L1135.8 122.46L1336.35 322.34L1256.89 351.71L1254.59 347.38L1258.6 354.98ZM893.59 30.85L1253.45 348.43L1133.48 121.28L893.59 30.85Z" />
		<path id="Path 15" fill-rule="evenodd" class="shp5" d="M1256.54 352.64L1131.01 116.63L1337.71 322.64L1256.54 352.64ZM1137.02 124.74L1257.25 350.78L1334.99 322.05L1137.02 124.74Z" />
		<path id="Path 16" class="shp1" d="M1400.21 425.97L1336.35 322.34L1256.89 351.71L1400.21 425.97Z" />
		<path id="Path 17" fill-rule="evenodd" class="shp8" d="M1402.27 427.89L1255.04 351.59L1336.66 321.43L1402.27 427.89ZM1258.74 351.82L1398.15 424.06L1336.03 323.26L1258.74 351.82Z" />
		<path id="Path 18" class="shp9" d="M1015.07 336.16L1291.44 778.34L738.89 739.88L1015.07 336.16Z" />
		<path id="Path 19" fill-rule="evenodd" class="shp1" d="M1292.85 779.19L1291.39 779.09L737.54 740.54L738.27 739.46L1015.1 334.79L1015.7 335.76L1015.96 336.18L741.58 737.28L1290.02 777.49L1099.33 469.56L1292.85 779.19ZM1016.37 335.59L1015.96 336.18L1099.33 469.56L1016.37 335.59Z" />
		<path id="Path 20" class="shp10" d="M1291.44 778.44L971.89 1249.89L738.89 739.88L1291.44 778.44Z" />
		<path id="Path 21" fill-rule="evenodd" class="shp1" d="M971.76 1251.42L971.21 1250.2L737.69 739.05L1292.79 777.78L1292.06 778.86L971.76 1251.42ZM740.1 740.72L972.02 1248.36L1290.09 779.09L740.1 740.72Z" />
		<path id="Path 22" class="shp11" d="M738.89 740.43L505.52 1180.8L234.34 764.53L738.89 740.43Z" />
		<path id="Path 23" fill-rule="evenodd" class="shp1" d="M505.59 1182.27L504.9 1181.2L233 763.84L234.31 763.77L740.17 739.62L739.55 740.79L505.59 1182.27ZM235.68 765.21L505.46 1179.32L737.61 741.25L235.68 765.21Z" />
		<path id="Path 24" class="shp12" d="M234.34 764.53L505.53 1180.8L196.34 1198.07L234.34 764.53Z" />
		<path id="Path 25" fill-rule="evenodd" class="shp1" d="M195.52 1198.87L195.6 1198.01L233.78 762.3L234.97 764.12L506.86 1181.47L505.57 1181.55L195.52 1198.87ZM234.9 766.76L197.17 1197.27L504.19 1180.12L234.9 766.76Z" />
		<path id="Path 26" class="shp13" d="M196.34 1198.07L505.52 1180.8L616.04 1451.97L196.34 1198.07Z" />
		<path id="Path 27" fill-rule="evenodd" class="shp1" d="M617.59 1453.78L613.03 1451.02L384.58 1379.42L198.79 1200.43L193.88 1197.46L196.3 1197.32L506.02 1180.02L506.22 1180.51L617.59 1453.78ZM198.81 1198.68L614.49 1450.15L505.03 1181.58L198.81 1198.68Z" />
		<path id="Path 28" fill-rule="evenodd" class="shp1" d="M621.74 1454.54L384.06 1379.96L190.99 1193.96L621.74 1454.54ZM384.98 1378.76L610.34 1449.39L201.69 1202.18L384.98 1378.76Z" />
		<path id="Path 29" class="shp14" d="M108.21 1089.24L196.34 1198.07L1.16 764.53L108.21 1089.24Z" />
		<path id="Path 30" fill-rule="evenodd" class="shp1" d="M1.84 764.22L199.4 1203.04L107.5 1089.47L0.45 764.76L1.84 764.22ZM193.28 1193.1L6.36 777.9L108.88 1088.87L193.28 1193.1ZM1059.95 1415.7L738.89 1469.24L616.04 1451.97L1059.95 1415.7Z" />
		<path id="Path 31" fill-rule="evenodd" class="shp1" d="M1059.89 1414.95L1060.07 1416.44L738.9 1470L738.79 1469.98L609.25 1451.77L1059.89 1414.95ZM738.88 1468.48L1042.17 1417.9L622.83 1452.16L738.88 1468.48Z" />
		<path id="Path 32" class="shp15" d="M505.52 1180.79L971.89 1249.89L616.04 1451.97L505.52 1180.79Z" />
		<path id="Path 33" fill-rule="evenodd" class="shp1" d="M615.67 1453.04L504.33 1179.86L505.64 1180.05L974.15 1249.47L972.26 1250.54L615.67 1453.04ZM506.72 1181.73L616.41 1450.89L969.63 1250.31L506.72 1181.73Z" />
		<path id="Path 34" class="shp7" d="M971.89 1249.89L1059.95 1415.7L616.04 1451.97L971.89 1249.89Z" />
		<path id="Path 35" fill-rule="evenodd" class="shp1" d="M612.72 1452.99L615.67 1451.31L972.19 1248.86L972.55 1249.54L1061.15 1416.35L1060.01 1416.44L612.72 1452.99ZM971.59 1250.92L619.36 1450.94L1058.75 1415.04L971.59 1250.92Z" />
		<path id="Path 36" class="shp16" d="M1336.35 1149.71L1059.95 1415.7L971.89 1250.74L1336.35 1149.71Z" />
		<path id="Path 37" fill-rule="evenodd" class="shp1" d="M1059.76 1416.92L1059.29 1416.05L970.79 1250.27L971.69 1250.01L1339 1148.19L1336.87 1150.24L1059.76 1416.92ZM972.99 1251.21L1060.14 1414.47L1333.69 1151.22L972.99 1251.21Z" />
		<path id="Path 38" class="shp17" d="M1.16 764.53L196.34 1198.07L234.34 764.53L1.16 764.53Z" />
		<path id="Path 39" fill-rule="evenodd" class="shp1" d="M235.16 763.78L235.09 764.59L196.84 1201L0 763.78L235.16 763.78ZM195.85 1195.14L233.52 765.28L2.32 765.28L195.85 1195.14Z" />
		<path id="Path 40" class="shp18" d="M133.01 387.98L412.25 63.47L519.34 280.88L133.01 387.98Z" />
		<path id="Path 41" fill-rule="evenodd" class="shp1" d="M130.83 389.36L132.44 387.49L412.42 62.12L412.92 63.14L520.41 281.37L130.83 389.36ZM412.08 64.82L135.19 386.59L518.27 280.4L412.08 64.82Z" />
		<path id="Path 42" class="shp15" d="M1.16 764.53L234.34 764.53L133.01 387.98L1.16 764.53Z" />
		<path id="Path 43" fill-rule="evenodd" class="shp1" d="M133.11 385.44L235.32 765.28L0.1 765.28L0.45 764.28L3 756.99L78.9 446.71L131.73 389.36L133.11 385.44ZM2.22 763.78L233.36 763.78L132.92 390.52L2.22 763.78Z" />
		<path id="Path 44" fill-rule="evenodd" class="shp19" d="M134.92 384.8L1.87 764.77L0.43 764.35L78.22 446.34L78.35 446.2L134.92 384.8ZM5.56 749.68L131.1 391.15L79.58 447.07L5.56 749.68Z" />
		<path id="Path 45" class="shp1" d="M133.01 387.98L78.9 446.71L117.75 364.98L412.25 63.47L133.01 387.98Z" />
		<path id="Path 46" fill-rule="evenodd" class="shp16" d="M76.1 450.85L117.22 364.45L411.71 62.94L412.82 63.96L133.58 388.47L76.1 450.85ZM118.38 365.41L81.7 442.56L132.46 387.47L396.17 81L118.38 365.41Z" />
		<path id="Path 47" class="shp20" d="M133.01 387.98L519.34 280.88L234.34 764.52L133.01 387.98Z" />
		<path id="Path 48" fill-rule="evenodd" class="shp1" d="M234.08 766.45L233.62 764.72L132.09 387.46L132.81 387.26L520.93 279.67L519.99 281.27L234.08 766.45ZM133.93 388.5L234.6 762.61L517.75 282.11L133.93 388.5Z" />
		<path id="Path 49" class="shp17" d="M739.01 740.43L971.89 1249.89L505.53 1180.8L739.01 740.43Z" />
		<path id="Path 50" fill-rule="evenodd" class="shp1" d="M973.15 1250.83L971.78 1250.63L504.37 1181.38L504.86 1180.44L739.06 738.74L739.69 740.12L973.15 1250.83ZM506.69 1180.21L970.63 1248.95L738.96 742.13L506.69 1180.21Z" />
		<path id="Path 51" class="shp8" d="M1291.44 780.16L1336.35 1149.71L971.89 1249.89L1291.44 780.16Z" />
		<path id="Path 52" fill-rule="evenodd" class="shp1" d="M970.12 1251.15L971.27 1249.47L1291.94 778.09L1292.18 780.07L1337.17 1150.26L1336.55 1150.43L970.12 1251.15ZM1290.93 782.24L973.66 1248.63L1335.52 1149.15L1290.93 782.24Z" />
		<path id="Path 53" class="shp7" d="M1291.44 778.34L1486.62 778.34L1336.35 1149.71L1291.44 778.34Z" />
		<path id="Path 54" fill-rule="evenodd" class="shp1" d="M1335.95 1152.68L1290.59 777.59L1487.73 777.59L1487.31 778.62L1335.95 1152.68ZM1292.28 779.09L1336.74 1146.73L1485.51 779.09L1292.28 779.09Z" />
		<path id="Path 55" class="shp6" d="M1015.07 336.16L1256.89 351.71L1291.44 780.16L1015.07 336.16Z" />
		<path id="Path 56" fill-rule="evenodd" class="shp1" d="M1292.43 783.18L1290.8 780.56L1013.66 335.32L1257.58 351L1257.64 351.65L1292.43 783.18ZM1016.47 337L1290.44 777.14L1256.2 352.41L1016.47 337Z" />
		<path id="Path 57" class="shp21" d="M1291.44 778.34L1486.62 778.34L1256.89 351.71L1291.44 778.34Z" />
		<path id="Path 58" fill-rule="evenodd" class="shp1" d="M1487.88 779.09L1290.75 779.09L1255.85 348.2L1487.88 779.09ZM1292.13 777.59L1485.36 777.59L1257.93 355.21L1292.13 777.59Z" />
		<path id="Path 59" class="shp7" d="M1486.62 778.34L1400.21 425.97L1256.89 351.71L1486.62 778.34Z" />
		<path id="Path 60" fill-rule="evenodd" class="shp8" d="M1255.08 349.92L1400.86 425.46L1400.94 425.8L1488.75 783.88L1485.96 778.69L1255.08 349.92ZM1484.49 772.8L1399.56 426.48L1258.7 353.49L1484.49 772.8Z" />
	</g>
</svg>